<?xml version="1.0" encoding="utf-8" standalone="no"?>
<!DOCTYPE svg PUBLIC "-//W3C//DTD SVG 1.1//EN"
  "http://www.w3.org/Graphics/SVG/1.1/DTD/svg11.dtd">
<svg xmlns:xlink="http://www.w3.org/1999/xlink" width="497.38125pt" height="392.514375pt" viewBox="0 0 497.38125 392.514375" xmlns="http://www.w3.org/2000/svg" version="1.1">
 <metadata>
  <rdf:RDF xmlns:dc="http://purl.org/dc/elements/1.1/" xmlns:cc="http://creativecommons.org/ns#" xmlns:rdf="http://www.w3.org/1999/02/22-rdf-syntax-ns#">
   <cc:Work>
    <dc:type rdf:resource="http://purl.org/dc/dcmitype/StillImage"/>
    <dc:date>2026-06-07T15:28:21.746497</dc:date>
    <dc:format>image/svg+xml</dc:format>
    <dc:creator>
     <cc:Agent>
      <dc:title>Matplotlib v3.10.8, https://matplotlib.org/</dc:title>
     </cc:Agent>
    </dc:creator>
   </cc:Work>
  </rdf:RDF>
 </metadata>
 <defs>
  <style type="text/css">*{stroke-linejoin: round; stroke-linecap: butt}</style>
 </defs>
 <g id="figure_1">
  <g id="patch_1">
   <path d="M 0 392.514375 
L 497.38125 392.514375 
L 497.38125 0 
L 0 0 
z
" style="fill: #ffffff"/>
  </g>
  <g id="axes_1">
   <g id="patch_2">
    <path d="M 43.78125 354.958125 
L 490.18125 354.958125 
L 490.18125 22.318125 
L 43.78125 22.318125 
z
" style="fill: #ffffff"/>
   </g>
   <g id="matplotlib.axis_1">
    <g id="xtick_1">
     <g id="line2d_1">
      <path d="M 104.441409 354.958125 
L 104.441409 22.318125 
" clip-path="url(#paacd0a6025)" style="fill: none; stroke: #b0b0b0; stroke-width: 0.8; stroke-linecap: square"/>
     </g>
     <g id="line2d_2">
      <defs>
       <path id="mf142115751" d="M 0 0 
L 0 3.5 
" style="stroke: #000000; stroke-width: 0.8"/>
      </defs>
      <g>
       <use xlink:href="#mf142115751" x="104.441409" y="354.958125" style="stroke: #000000; stroke-width: 0.8"/>
      </g>
     </g>
     <g id="text_1">
      <!-- −20 -->
      <g transform="translate(93.889065 369.556562) scale(0.1 -0.1)">
       <defs>
        <path id="DejaVuSans-2212" d="M 678 2272 
L 4684 2272 
L 4684 1741 
L 678 1741 
L 678 2272 
z
" transform="scale(0.015625)"/>
        <path id="DejaVuSans-32" d="M 1228 531 
L 3431 531 
L 3431 0 
L 469 0 
L 469 531 
Q 828 903 1448 1529 
Q 2069 2156 2228 2338 
Q 2531 2678 2651 2914 
Q 2772 3150 2772 3378 
Q 2772 3750 2511 3984 
Q 2250 4219 1831 4219 
Q 1534 4219 1204 4116 
Q 875 4013 500 3803 
L 500 4441 
Q 881 4594 1212 4672 
Q 1544 4750 1819 4750 
Q 2544 4750 2975 4387 
Q 3406 4025 3406 3419 
Q 3406 3131 3298 2873 
Q 3191 2616 2906 2266 
Q 2828 2175 2409 1742 
Q 1991 1309 1228 531 
z
" transform="scale(0.015625)"/>
        <path id="DejaVuSans-30" d="M 2034 4250 
Q 1547 4250 1301 3770 
Q 1056 3291 1056 2328 
Q 1056 1369 1301 889 
Q 1547 409 2034 409 
Q 2525 409 2770 889 
Q 3016 1369 3016 2328 
Q 3016 3291 2770 3770 
Q 2525 4250 2034 4250 
z
M 2034 4750 
Q 2819 4750 3233 4129 
Q 3647 3509 3647 2328 
Q 3647 1150 3233 529 
Q 2819 -91 2034 -91 
Q 1250 -91 836 529 
Q 422 1150 422 2328 
Q 422 3509 836 4129 
Q 1250 4750 2034 4750 
z
" transform="scale(0.015625)"/>
       </defs>
       <use xlink:href="#DejaVuSans-2212"/>
       <use xlink:href="#DejaVuSans-32" transform="translate(83.789062 0)"/>
       <use xlink:href="#DejaVuSans-30" transform="translate(147.412109 0)"/>
      </g>
     </g>
    </g>
    <g id="xtick_2">
     <g id="line2d_3">
      <path d="M 185.711329 354.958125 
L 185.711329 22.318125 
" clip-path="url(#paacd0a6025)" style="fill: none; stroke: #b0b0b0; stroke-width: 0.8; stroke-linecap: square"/>
     </g>
     <g id="line2d_4">
      <g>
       <use xlink:href="#mf142115751" x="185.711329" y="354.958125" style="stroke: #000000; stroke-width: 0.8"/>
      </g>
     </g>
     <g id="text_2">
      <!-- −10 -->
      <g transform="translate(175.158986 369.556562) scale(0.1 -0.1)">
       <defs>
        <path id="DejaVuSans-31" d="M 794 531 
L 1825 531 
L 1825 4091 
L 703 3866 
L 703 4441 
L 1819 4666 
L 2450 4666 
L 2450 531 
L 3481 531 
L 3481 0 
L 794 0 
L 794 531 
z
" transform="scale(0.015625)"/>
       </defs>
       <use xlink:href="#DejaVuSans-2212"/>
       <use xlink:href="#DejaVuSans-31" transform="translate(83.789062 0)"/>
       <use xlink:href="#DejaVuSans-30" transform="translate(147.412109 0)"/>
      </g>
     </g>
    </g>
    <g id="xtick_3">
     <g id="line2d_5">
      <path d="M 266.98125 354.958125 
L 266.98125 22.318125 
" clip-path="url(#paacd0a6025)" style="fill: none; stroke: #b0b0b0; stroke-width: 0.8; stroke-linecap: square"/>
     </g>
     <g id="line2d_6">
      <g>
       <use xlink:href="#mf142115751" x="266.98125" y="354.958125" style="stroke: #000000; stroke-width: 0.8"/>
      </g>
     </g>
     <g id="text_3">
      <!-- 0 -->
      <g transform="translate(263.8 369.556562) scale(0.1 -0.1)">
       <use xlink:href="#DejaVuSans-30"/>
      </g>
     </g>
    </g>
    <g id="xtick_4">
     <g id="line2d_7">
      <path d="M 348.251171 354.958125 
L 348.251171 22.318125 
" clip-path="url(#paacd0a6025)" style="fill: none; stroke: #b0b0b0; stroke-width: 0.8; stroke-linecap: square"/>
     </g>
     <g id="line2d_8">
      <g>
       <use xlink:href="#mf142115751" x="348.251171" y="354.958125" style="stroke: #000000; stroke-width: 0.8"/>
      </g>
     </g>
     <g id="text_4">
      <!-- 10 -->
      <g transform="translate(341.888671 369.556562) scale(0.1 -0.1)">
       <use xlink:href="#DejaVuSans-31"/>
       <use xlink:href="#DejaVuSans-30" transform="translate(63.623047 0)"/>
      </g>
     </g>
    </g>
    <g id="xtick_5">
     <g id="line2d_9">
      <path d="M 429.521091 354.958125 
L 429.521091 22.318125 
" clip-path="url(#paacd0a6025)" style="fill: none; stroke: #b0b0b0; stroke-width: 0.8; stroke-linecap: square"/>
     </g>
     <g id="line2d_10">
      <g>
       <use xlink:href="#mf142115751" x="429.521091" y="354.958125" style="stroke: #000000; stroke-width: 0.8"/>
      </g>
     </g>
     <g id="text_5">
      <!-- 20 -->
      <g transform="translate(423.158591 369.556562) scale(0.1 -0.1)">
       <use xlink:href="#DejaVuSans-32"/>
       <use xlink:href="#DejaVuSans-30" transform="translate(63.623047 0)"/>
      </g>
     </g>
    </g>
    <g id="text_6">
     <!-- Y Coordinate (mm) -->
     <g transform="translate(219.696094 383.234687) scale(0.1 -0.1)">
      <defs>
       <path id="DejaVuSans-59" d="M -13 4666 
L 666 4666 
L 1959 2747 
L 3244 4666 
L 3922 4666 
L 2272 2222 
L 2272 0 
L 1638 0 
L 1638 2222 
L -13 4666 
z
" transform="scale(0.015625)"/>
       <path id="DejaVuSans-20" transform="scale(0.015625)"/>
       <path id="DejaVuSans-43" d="M 4122 4306 
L 4122 3641 
Q 3803 3938 3442 4084 
Q 3081 4231 2675 4231 
Q 1875 4231 1450 3742 
Q 1025 3253 1025 2328 
Q 1025 1406 1450 917 
Q 1875 428 2675 428 
Q 3081 428 3442 575 
Q 3803 722 4122 1019 
L 4122 359 
Q 3791 134 3420 21 
Q 3050 -91 2638 -91 
Q 1578 -91 968 557 
Q 359 1206 359 2328 
Q 359 3453 968 4101 
Q 1578 4750 2638 4750 
Q 3056 4750 3426 4639 
Q 3797 4528 4122 4306 
z
" transform="scale(0.015625)"/>
       <path id="DejaVuSans-6f" d="M 1959 3097 
Q 1497 3097 1228 2736 
Q 959 2375 959 1747 
Q 959 1119 1226 758 
Q 1494 397 1959 397 
Q 2419 397 2687 759 
Q 2956 1122 2956 1747 
Q 2956 2369 2687 2733 
Q 2419 3097 1959 3097 
z
M 1959 3584 
Q 2709 3584 3137 3096 
Q 3566 2609 3566 1747 
Q 3566 888 3137 398 
Q 2709 -91 1959 -91 
Q 1206 -91 779 398 
Q 353 888 353 1747 
Q 353 2609 779 3096 
Q 1206 3584 1959 3584 
z
" transform="scale(0.015625)"/>
       <path id="DejaVuSans-72" d="M 2631 2963 
Q 2534 3019 2420 3045 
Q 2306 3072 2169 3072 
Q 1681 3072 1420 2755 
Q 1159 2438 1159 1844 
L 1159 0 
L 581 0 
L 581 3500 
L 1159 3500 
L 1159 2956 
Q 1341 3275 1631 3429 
Q 1922 3584 2338 3584 
Q 2397 3584 2469 3576 
Q 2541 3569 2628 3553 
L 2631 2963 
z
" transform="scale(0.015625)"/>
       <path id="DejaVuSans-64" d="M 2906 2969 
L 2906 4863 
L 3481 4863 
L 3481 0 
L 2906 0 
L 2906 525 
Q 2725 213 2448 61 
Q 2172 -91 1784 -91 
Q 1150 -91 751 415 
Q 353 922 353 1747 
Q 353 2572 751 3078 
Q 1150 3584 1784 3584 
Q 2172 3584 2448 3432 
Q 2725 3281 2906 2969 
z
M 947 1747 
Q 947 1113 1208 752 
Q 1469 391 1925 391 
Q 2381 391 2643 752 
Q 2906 1113 2906 1747 
Q 2906 2381 2643 2742 
Q 2381 3103 1925 3103 
Q 1469 3103 1208 2742 
Q 947 2381 947 1747 
z
" transform="scale(0.015625)"/>
       <path id="DejaVuSans-69" d="M 603 3500 
L 1178 3500 
L 1178 0 
L 603 0 
L 603 3500 
z
M 603 4863 
L 1178 4863 
L 1178 4134 
L 603 4134 
L 603 4863 
z
" transform="scale(0.015625)"/>
       <path id="DejaVuSans-6e" d="M 3513 2113 
L 3513 0 
L 2938 0 
L 2938 2094 
Q 2938 2591 2744 2837 
Q 2550 3084 2163 3084 
Q 1697 3084 1428 2787 
Q 1159 2491 1159 1978 
L 1159 0 
L 581 0 
L 581 3500 
L 1159 3500 
L 1159 2956 
Q 1366 3272 1645 3428 
Q 1925 3584 2291 3584 
Q 2894 3584 3203 3211 
Q 3513 2838 3513 2113 
z
" transform="scale(0.015625)"/>
       <path id="DejaVuSans-61" d="M 2194 1759 
Q 1497 1759 1228 1600 
Q 959 1441 959 1056 
Q 959 750 1161 570 
Q 1363 391 1709 391 
Q 2188 391 2477 730 
Q 2766 1069 2766 1631 
L 2766 1759 
L 2194 1759 
z
M 3341 1997 
L 3341 0 
L 2766 0 
L 2766 531 
Q 2569 213 2275 61 
Q 1981 -91 1556 -91 
Q 1019 -91 701 211 
Q 384 513 384 1019 
Q 384 1609 779 1909 
Q 1175 2209 1959 2209 
L 2766 2209 
L 2766 2266 
Q 2766 2663 2505 2880 
Q 2244 3097 1772 3097 
Q 1472 3097 1187 3025 
Q 903 2953 641 2809 
L 641 3341 
Q 956 3463 1253 3523 
Q 1550 3584 1831 3584 
Q 2591 3584 2966 3190 
Q 3341 2797 3341 1997 
z
" transform="scale(0.015625)"/>
       <path id="DejaVuSans-74" d="M 1172 4494 
L 1172 3500 
L 2356 3500 
L 2356 3053 
L 1172 3053 
L 1172 1153 
Q 1172 725 1289 603 
Q 1406 481 1766 481 
L 2356 481 
L 2356 0 
L 1766 0 
Q 1100 0 847 248 
Q 594 497 594 1153 
L 594 3053 
L 172 3053 
L 172 3500 
L 594 3500 
L 594 4494 
L 1172 4494 
z
" transform="scale(0.015625)"/>
       <path id="DejaVuSans-65" d="M 3597 1894 
L 3597 1613 
L 953 1613 
Q 991 1019 1311 708 
Q 1631 397 2203 397 
Q 2534 397 2845 478 
Q 3156 559 3463 722 
L 3463 178 
Q 3153 47 2828 -22 
Q 2503 -91 2169 -91 
Q 1331 -91 842 396 
Q 353 884 353 1716 
Q 353 2575 817 3079 
Q 1281 3584 2069 3584 
Q 2775 3584 3186 3129 
Q 3597 2675 3597 1894 
z
M 3022 2063 
Q 3016 2534 2758 2815 
Q 2500 3097 2075 3097 
Q 1594 3097 1305 2825 
Q 1016 2553 972 2059 
L 3022 2063 
z
" transform="scale(0.015625)"/>
       <path id="DejaVuSans-28" d="M 1984 4856 
Q 1566 4138 1362 3434 
Q 1159 2731 1159 2009 
Q 1159 1288 1364 580 
Q 1569 -128 1984 -844 
L 1484 -844 
Q 1016 -109 783 600 
Q 550 1309 550 2009 
Q 550 2706 781 3412 
Q 1013 4119 1484 4856 
L 1984 4856 
z
" transform="scale(0.015625)"/>
       <path id="DejaVuSans-6d" d="M 3328 2828 
Q 3544 3216 3844 3400 
Q 4144 3584 4550 3584 
Q 5097 3584 5394 3201 
Q 5691 2819 5691 2113 
L 5691 0 
L 5113 0 
L 5113 2094 
Q 5113 2597 4934 2840 
Q 4756 3084 4391 3084 
Q 3944 3084 3684 2787 
Q 3425 2491 3425 1978 
L 3425 0 
L 2847 0 
L 2847 2094 
Q 2847 2600 2669 2842 
Q 2491 3084 2119 3084 
Q 1678 3084 1418 2786 
Q 1159 2488 1159 1978 
L 1159 0 
L 581 0 
L 581 3500 
L 1159 3500 
L 1159 2956 
Q 1356 3278 1631 3431 
Q 1906 3584 2284 3584 
Q 2666 3584 2933 3390 
Q 3200 3197 3328 2828 
z
" transform="scale(0.015625)"/>
       <path id="DejaVuSans-29" d="M 513 4856 
L 1013 4856 
Q 1481 4119 1714 3412 
Q 1947 2706 1947 2009 
Q 1947 1309 1714 600 
Q 1481 -109 1013 -844 
L 513 -844 
Q 928 -128 1133 580 
Q 1338 1288 1338 2009 
Q 1338 2731 1133 3434 
Q 928 4138 513 4856 
z
" transform="scale(0.015625)"/>
      </defs>
      <use xlink:href="#DejaVuSans-59"/>
      <use xlink:href="#DejaVuSans-20" transform="translate(61.083984 0)"/>
      <use xlink:href="#DejaVuSans-43" transform="translate(92.871094 0)"/>
      <use xlink:href="#DejaVuSans-6f" transform="translate(162.695312 0)"/>
      <use xlink:href="#DejaVuSans-6f" transform="translate(223.876953 0)"/>
      <use xlink:href="#DejaVuSans-72" transform="translate(285.058594 0)"/>
      <use xlink:href="#DejaVuSans-64" transform="translate(324.421875 0)"/>
      <use xlink:href="#DejaVuSans-69" transform="translate(387.898438 0)"/>
      <use xlink:href="#DejaVuSans-6e" transform="translate(415.681641 0)"/>
      <use xlink:href="#DejaVuSans-61" transform="translate(479.060547 0)"/>
      <use xlink:href="#DejaVuSans-74" transform="translate(540.339844 0)"/>
      <use xlink:href="#DejaVuSans-65" transform="translate(579.548828 0)"/>
      <use xlink:href="#DejaVuSans-20" transform="translate(641.072266 0)"/>
      <use xlink:href="#DejaVuSans-28" transform="translate(672.859375 0)"/>
      <use xlink:href="#DejaVuSans-6d" transform="translate(711.873047 0)"/>
      <use xlink:href="#DejaVuSans-6d" transform="translate(809.285156 0)"/>
      <use xlink:href="#DejaVuSans-29" transform="translate(906.697266 0)"/>
     </g>
    </g>
   </g>
   <g id="matplotlib.axis_2">
    <g id="ytick_1">
     <g id="line2d_11">
      <path d="M 43.78125 349.673948 
L 490.18125 349.673948 
" clip-path="url(#paacd0a6025)" style="fill: none; stroke: #b0b0b0; stroke-width: 0.8; stroke-linecap: square"/>
     </g>
     <g id="line2d_12">
      <defs>
       <path id="m2db32aba23" d="M 0 0 
L -3.5 0 
" style="stroke: #000000; stroke-width: 0.8"/>
      </defs>
      <g>
       <use xlink:href="#m2db32aba23" x="43.78125" y="349.673948" style="stroke: #000000; stroke-width: 0.8"/>
      </g>
     </g>
     <g id="text_7">
      <!-- 0.0 -->
      <g transform="translate(20.878125 353.473167) scale(0.1 -0.1)">
       <defs>
        <path id="DejaVuSans-2e" d="M 684 794 
L 1344 794 
L 1344 0 
L 684 0 
L 684 794 
z
" transform="scale(0.015625)"/>
       </defs>
       <use xlink:href="#DejaVuSans-30"/>
       <use xlink:href="#DejaVuSans-2e" transform="translate(63.623047 0)"/>
       <use xlink:href="#DejaVuSans-30" transform="translate(95.410156 0)"/>
      </g>
     </g>
    </g>
    <g id="ytick_2">
     <g id="line2d_13">
      <path d="M 43.78125 287.226783 
L 490.18125 287.226783 
" clip-path="url(#paacd0a6025)" style="fill: none; stroke: #b0b0b0; stroke-width: 0.8; stroke-linecap: square"/>
     </g>
     <g id="line2d_14">
      <g>
       <use xlink:href="#m2db32aba23" x="43.78125" y="287.226783" style="stroke: #000000; stroke-width: 0.8"/>
      </g>
     </g>
     <g id="text_8">
      <!-- 0.2 -->
      <g transform="translate(20.878125 291.026002) scale(0.1 -0.1)">
       <use xlink:href="#DejaVuSans-30"/>
       <use xlink:href="#DejaVuSans-2e" transform="translate(63.623047 0)"/>
       <use xlink:href="#DejaVuSans-32" transform="translate(95.410156 0)"/>
      </g>
     </g>
    </g>
    <g id="ytick_3">
     <g id="line2d_15">
      <path d="M 43.78125 224.779619 
L 490.18125 224.779619 
" clip-path="url(#paacd0a6025)" style="fill: none; stroke: #b0b0b0; stroke-width: 0.8; stroke-linecap: square"/>
     </g>
     <g id="line2d_16">
      <g>
       <use xlink:href="#m2db32aba23" x="43.78125" y="224.779619" style="stroke: #000000; stroke-width: 0.8"/>
      </g>
     </g>
     <g id="text_9">
      <!-- 0.4 -->
      <g transform="translate(20.878125 228.578837) scale(0.1 -0.1)">
       <defs>
        <path id="DejaVuSans-34" d="M 2419 4116 
L 825 1625 
L 2419 1625 
L 2419 4116 
z
M 2253 4666 
L 3047 4666 
L 3047 1625 
L 3713 1625 
L 3713 1100 
L 3047 1100 
L 3047 0 
L 2419 0 
L 2419 1100 
L 313 1100 
L 313 1709 
L 2253 4666 
z
" transform="scale(0.015625)"/>
       </defs>
       <use xlink:href="#DejaVuSans-30"/>
       <use xlink:href="#DejaVuSans-2e" transform="translate(63.623047 0)"/>
       <use xlink:href="#DejaVuSans-34" transform="translate(95.410156 0)"/>
      </g>
     </g>
    </g>
    <g id="ytick_4">
     <g id="line2d_17">
      <path d="M 43.78125 162.332454 
L 490.18125 162.332454 
" clip-path="url(#paacd0a6025)" style="fill: none; stroke: #b0b0b0; stroke-width: 0.8; stroke-linecap: square"/>
     </g>
     <g id="line2d_18">
      <g>
       <use xlink:href="#m2db32aba23" x="43.78125" y="162.332454" style="stroke: #000000; stroke-width: 0.8"/>
      </g>
     </g>
     <g id="text_10">
      <!-- 0.6 -->
      <g transform="translate(20.878125 166.131673) scale(0.1 -0.1)">
       <defs>
        <path id="DejaVuSans-36" d="M 2113 2584 
Q 1688 2584 1439 2293 
Q 1191 2003 1191 1497 
Q 1191 994 1439 701 
Q 1688 409 2113 409 
Q 2538 409 2786 701 
Q 3034 994 3034 1497 
Q 3034 2003 2786 2293 
Q 2538 2584 2113 2584 
z
M 3366 4563 
L 3366 3988 
Q 3128 4100 2886 4159 
Q 2644 4219 2406 4219 
Q 1781 4219 1451 3797 
Q 1122 3375 1075 2522 
Q 1259 2794 1537 2939 
Q 1816 3084 2150 3084 
Q 2853 3084 3261 2657 
Q 3669 2231 3669 1497 
Q 3669 778 3244 343 
Q 2819 -91 2113 -91 
Q 1303 -91 875 529 
Q 447 1150 447 2328 
Q 447 3434 972 4092 
Q 1497 4750 2381 4750 
Q 2619 4750 2861 4703 
Q 3103 4656 3366 4563 
z
" transform="scale(0.015625)"/>
       </defs>
       <use xlink:href="#DejaVuSans-30"/>
       <use xlink:href="#DejaVuSans-2e" transform="translate(63.623047 0)"/>
       <use xlink:href="#DejaVuSans-36" transform="translate(95.410156 0)"/>
      </g>
     </g>
    </g>
    <g id="ytick_5">
     <g id="line2d_19">
      <path d="M 43.78125 99.88529 
L 490.18125 99.88529 
" clip-path="url(#paacd0a6025)" style="fill: none; stroke: #b0b0b0; stroke-width: 0.8; stroke-linecap: square"/>
     </g>
     <g id="line2d_20">
      <g>
       <use xlink:href="#m2db32aba23" x="43.78125" y="99.88529" style="stroke: #000000; stroke-width: 0.8"/>
      </g>
     </g>
     <g id="text_11">
      <!-- 0.8 -->
      <g transform="translate(20.878125 103.684508) scale(0.1 -0.1)">
       <defs>
        <path id="DejaVuSans-38" d="M 2034 2216 
Q 1584 2216 1326 1975 
Q 1069 1734 1069 1313 
Q 1069 891 1326 650 
Q 1584 409 2034 409 
Q 2484 409 2743 651 
Q 3003 894 3003 1313 
Q 3003 1734 2745 1975 
Q 2488 2216 2034 2216 
z
M 1403 2484 
Q 997 2584 770 2862 
Q 544 3141 544 3541 
Q 544 4100 942 4425 
Q 1341 4750 2034 4750 
Q 2731 4750 3128 4425 
Q 3525 4100 3525 3541 
Q 3525 3141 3298 2862 
Q 3072 2584 2669 2484 
Q 3125 2378 3379 2068 
Q 3634 1759 3634 1313 
Q 3634 634 3220 271 
Q 2806 -91 2034 -91 
Q 1263 -91 848 271 
Q 434 634 434 1313 
Q 434 1759 690 2068 
Q 947 2378 1403 2484 
z
M 1172 3481 
Q 1172 3119 1398 2916 
Q 1625 2713 2034 2713 
Q 2441 2713 2670 2916 
Q 2900 3119 2900 3481 
Q 2900 3844 2670 4047 
Q 2441 4250 2034 4250 
Q 1625 4250 1398 4047 
Q 1172 3844 1172 3481 
z
" transform="scale(0.015625)"/>
       </defs>
       <use xlink:href="#DejaVuSans-30"/>
       <use xlink:href="#DejaVuSans-2e" transform="translate(63.623047 0)"/>
       <use xlink:href="#DejaVuSans-38" transform="translate(95.410156 0)"/>
      </g>
     </g>
    </g>
    <g id="ytick_6">
     <g id="line2d_21">
      <path d="M 43.78125 37.438125 
L 490.18125 37.438125 
" clip-path="url(#paacd0a6025)" style="fill: none; stroke: #b0b0b0; stroke-width: 0.8; stroke-linecap: square"/>
     </g>
     <g id="line2d_22">
      <g>
       <use xlink:href="#m2db32aba23" x="43.78125" y="37.438125" style="stroke: #000000; stroke-width: 0.8"/>
      </g>
     </g>
     <g id="text_12">
      <!-- 1.0 -->
      <g transform="translate(20.878125 41.237344) scale(0.1 -0.1)">
       <use xlink:href="#DejaVuSans-31"/>
       <use xlink:href="#DejaVuSans-2e" transform="translate(63.623047 0)"/>
       <use xlink:href="#DejaVuSans-30" transform="translate(95.410156 0)"/>
      </g>
     </g>
    </g>
    <g id="text_13">
     <!-- Normalized E-field Magnitude (linear scale) -->
     <g transform="translate(14.798438 296.520156) rotate(-90) scale(0.1 -0.1)">
      <defs>
       <path id="DejaVuSans-4e" d="M 628 4666 
L 1478 4666 
L 3547 763 
L 3547 4666 
L 4159 4666 
L 4159 0 
L 3309 0 
L 1241 3903 
L 1241 0 
L 628 0 
L 628 4666 
z
" transform="scale(0.015625)"/>
       <path id="DejaVuSans-6c" d="M 603 4863 
L 1178 4863 
L 1178 0 
L 603 0 
L 603 4863 
z
" transform="scale(0.015625)"/>
       <path id="DejaVuSans-7a" d="M 353 3500 
L 3084 3500 
L 3084 2975 
L 922 459 
L 3084 459 
L 3084 0 
L 275 0 
L 275 525 
L 2438 3041 
L 353 3041 
L 353 3500 
z
" transform="scale(0.015625)"/>
       <path id="DejaVuSans-45" d="M 628 4666 
L 3578 4666 
L 3578 4134 
L 1259 4134 
L 1259 2753 
L 3481 2753 
L 3481 2222 
L 1259 2222 
L 1259 531 
L 3634 531 
L 3634 0 
L 628 0 
L 628 4666 
z
" transform="scale(0.015625)"/>
       <path id="DejaVuSans-2d" d="M 313 2009 
L 1997 2009 
L 1997 1497 
L 313 1497 
L 313 2009 
z
" transform="scale(0.015625)"/>
       <path id="DejaVuSans-66" d="M 2375 4863 
L 2375 4384 
L 1825 4384 
Q 1516 4384 1395 4259 
Q 1275 4134 1275 3809 
L 1275 3500 
L 2222 3500 
L 2222 3053 
L 1275 3053 
L 1275 0 
L 697 0 
L 697 3053 
L 147 3053 
L 147 3500 
L 697 3500 
L 697 3744 
Q 697 4328 969 4595 
Q 1241 4863 1831 4863 
L 2375 4863 
z
" transform="scale(0.015625)"/>
       <path id="DejaVuSans-4d" d="M 628 4666 
L 1569 4666 
L 2759 1491 
L 3956 4666 
L 4897 4666 
L 4897 0 
L 4281 0 
L 4281 4097 
L 3078 897 
L 2444 897 
L 1241 4097 
L 1241 0 
L 628 0 
L 628 4666 
z
" transform="scale(0.015625)"/>
       <path id="DejaVuSans-67" d="M 2906 1791 
Q 2906 2416 2648 2759 
Q 2391 3103 1925 3103 
Q 1463 3103 1205 2759 
Q 947 2416 947 1791 
Q 947 1169 1205 825 
Q 1463 481 1925 481 
Q 2391 481 2648 825 
Q 2906 1169 2906 1791 
z
M 3481 434 
Q 3481 -459 3084 -895 
Q 2688 -1331 1869 -1331 
Q 1566 -1331 1297 -1286 
Q 1028 -1241 775 -1147 
L 775 -588 
Q 1028 -725 1275 -790 
Q 1522 -856 1778 -856 
Q 2344 -856 2625 -561 
Q 2906 -266 2906 331 
L 2906 616 
Q 2728 306 2450 153 
Q 2172 0 1784 0 
Q 1141 0 747 490 
Q 353 981 353 1791 
Q 353 2603 747 3093 
Q 1141 3584 1784 3584 
Q 2172 3584 2450 3431 
Q 2728 3278 2906 2969 
L 2906 3500 
L 3481 3500 
L 3481 434 
z
" transform="scale(0.015625)"/>
       <path id="DejaVuSans-75" d="M 544 1381 
L 544 3500 
L 1119 3500 
L 1119 1403 
Q 1119 906 1312 657 
Q 1506 409 1894 409 
Q 2359 409 2629 706 
Q 2900 1003 2900 1516 
L 2900 3500 
L 3475 3500 
L 3475 0 
L 2900 0 
L 2900 538 
Q 2691 219 2414 64 
Q 2138 -91 1772 -91 
Q 1169 -91 856 284 
Q 544 659 544 1381 
z
M 1991 3584 
L 1991 3584 
z
" transform="scale(0.015625)"/>
       <path id="DejaVuSans-73" d="M 2834 3397 
L 2834 2853 
Q 2591 2978 2328 3040 
Q 2066 3103 1784 3103 
Q 1356 3103 1142 2972 
Q 928 2841 928 2578 
Q 928 2378 1081 2264 
Q 1234 2150 1697 2047 
L 1894 2003 
Q 2506 1872 2764 1633 
Q 3022 1394 3022 966 
Q 3022 478 2636 193 
Q 2250 -91 1575 -91 
Q 1294 -91 989 -36 
Q 684 19 347 128 
L 347 722 
Q 666 556 975 473 
Q 1284 391 1588 391 
Q 1994 391 2212 530 
Q 2431 669 2431 922 
Q 2431 1156 2273 1281 
Q 2116 1406 1581 1522 
L 1381 1569 
Q 847 1681 609 1914 
Q 372 2147 372 2553 
Q 372 3047 722 3315 
Q 1072 3584 1716 3584 
Q 2034 3584 2315 3537 
Q 2597 3491 2834 3397 
z
" transform="scale(0.015625)"/>
       <path id="DejaVuSans-63" d="M 3122 3366 
L 3122 2828 
Q 2878 2963 2633 3030 
Q 2388 3097 2138 3097 
Q 1578 3097 1268 2742 
Q 959 2388 959 1747 
Q 959 1106 1268 751 
Q 1578 397 2138 397 
Q 2388 397 2633 464 
Q 2878 531 3122 666 
L 3122 134 
Q 2881 22 2623 -34 
Q 2366 -91 2075 -91 
Q 1284 -91 818 406 
Q 353 903 353 1747 
Q 353 2603 823 3093 
Q 1294 3584 2113 3584 
Q 2378 3584 2631 3529 
Q 2884 3475 3122 3366 
z
" transform="scale(0.015625)"/>
      </defs>
      <use xlink:href="#DejaVuSans-4e"/>
      <use xlink:href="#DejaVuSans-6f" transform="translate(74.804688 0)"/>
      <use xlink:href="#DejaVuSans-72" transform="translate(135.986328 0)"/>
      <use xlink:href="#DejaVuSans-6d" transform="translate(175.349609 0)"/>
      <use xlink:href="#DejaVuSans-61" transform="translate(272.761719 0)"/>
      <use xlink:href="#DejaVuSans-6c" transform="translate(334.041016 0)"/>
      <use xlink:href="#DejaVuSans-69" transform="translate(361.824219 0)"/>
      <use xlink:href="#DejaVuSans-7a" transform="translate(389.607422 0)"/>
      <use xlink:href="#DejaVuSans-65" transform="translate(442.097656 0)"/>
      <use xlink:href="#DejaVuSans-64" transform="translate(503.621094 0)"/>
      <use xlink:href="#DejaVuSans-20" transform="translate(567.097656 0)"/>
      <use xlink:href="#DejaVuSans-45" transform="translate(598.884766 0)"/>
      <use xlink:href="#DejaVuSans-2d" transform="translate(662.068359 0)"/>
      <use xlink:href="#DejaVuSans-66" transform="translate(698.152344 0)"/>
      <use xlink:href="#DejaVuSans-69" transform="translate(733.357422 0)"/>
      <use xlink:href="#DejaVuSans-65" transform="translate(761.140625 0)"/>
      <use xlink:href="#DejaVuSans-6c" transform="translate(822.664062 0)"/>
      <use xlink:href="#DejaVuSans-64" transform="translate(850.447266 0)"/>
      <use xlink:href="#DejaVuSans-20" transform="translate(913.923828 0)"/>
      <use xlink:href="#DejaVuSans-4d" transform="translate(945.710938 0)"/>
      <use xlink:href="#DejaVuSans-61" transform="translate(1031.990234 0)"/>
      <use xlink:href="#DejaVuSans-67" transform="translate(1093.269531 0)"/>
      <use xlink:href="#DejaVuSans-6e" transform="translate(1156.746094 0)"/>
      <use xlink:href="#DejaVuSans-69" transform="translate(1220.125 0)"/>
      <use xlink:href="#DejaVuSans-74" transform="translate(1247.908203 0)"/>
      <use xlink:href="#DejaVuSans-75" transform="translate(1287.117188 0)"/>
      <use xlink:href="#DejaVuSans-64" transform="translate(1350.496094 0)"/>
      <use xlink:href="#DejaVuSans-65" transform="translate(1413.972656 0)"/>
      <use xlink:href="#DejaVuSans-20" transform="translate(1475.496094 0)"/>
      <use xlink:href="#DejaVuSans-28" transform="translate(1507.283203 0)"/>
      <use xlink:href="#DejaVuSans-6c" transform="translate(1546.296875 0)"/>
      <use xlink:href="#DejaVuSans-69" transform="translate(1574.080078 0)"/>
      <use xlink:href="#DejaVuSans-6e" transform="translate(1601.863281 0)"/>
      <use xlink:href="#DejaVuSans-65" transform="translate(1665.242188 0)"/>
      <use xlink:href="#DejaVuSans-61" transform="translate(1726.765625 0)"/>
      <use xlink:href="#DejaVuSans-72" transform="translate(1788.044922 0)"/>
      <use xlink:href="#DejaVuSans-20" transform="translate(1829.158203 0)"/>
      <use xlink:href="#DejaVuSans-73" transform="translate(1860.945312 0)"/>
      <use xlink:href="#DejaVuSans-63" transform="translate(1913.044922 0)"/>
      <use xlink:href="#DejaVuSans-61" transform="translate(1968.025391 0)"/>
      <use xlink:href="#DejaVuSans-6c" transform="translate(2029.304688 0)"/>
      <use xlink:href="#DejaVuSans-65" transform="translate(2057.087891 0)"/>
      <use xlink:href="#DejaVuSans-29" transform="translate(2118.611328 0)"/>
     </g>
    </g>
   </g>
   <g id="line2d_23">
    <path d="M 64.077348 339.838125 
L 69.495343 240.166567 
L 70.578942 225.441609 
L 71.662541 214.637006 
L 72.20434 210.971227 
L 72.74614 208.505486 
L 73.287939 207.142996 
L 73.829739 206.727633 
L 74.371538 207.152311 
L 74.913338 208.320877 
L 75.455137 210.061964 
L 78.164135 220.611256 
L 78.705934 222.090817 
L 79.247734 223.095897 
L 79.789533 223.493254 
L 80.331333 223.229485 
L 80.873132 222.289225 
L 81.414931 220.586783 
L 81.956731 217.980717 
L 82.49853 214.396676 
L 83.04033 209.835193 
L 84.123929 197.835736 
L 85.749327 174.755167 
L 87.916525 143.397189 
L 89.000124 131.195285 
L 90.083723 122.472764 
L 90.625522 119.519524 
L 91.167322 117.367773 
L 91.709121 115.906498 
L 92.250921 115.013556 
L 92.79272 114.547172 
L 93.876319 114.209927 
L 94.418119 114.045148 
L 94.959918 113.742501 
L 95.501718 113.208262 
L 96.043517 112.400557 
L 96.585317 111.314083 
L 97.668916 108.235723 
L 98.752515 104.195469 
L 102.003311 90.915856 
L 102.545111 89.26371 
L 103.08691 87.990347 
L 103.62871 87.170713 
L 104.170509 86.871099 
L 104.712309 87.159862 
L 105.254108 88.083679 
L 105.795908 89.664659 
L 106.337707 91.877509 
L 107.421306 97.955951 
L 108.504905 105.804477 
L 110.672103 123.649333 
L 113.9229 151.946017 
L 116.631897 176.64112 
L 117.715496 183.797122 
L 118.257295 186.058714 
L 118.799095 187.260165 
L 119.340894 187.303063 
L 119.882694 186.279418 
L 120.424493 184.341243 
L 120.966293 181.59609 
L 122.049892 174.589662 
L 124.21709 159.88633 
L 125.842488 150.515505 
L 127.467886 141.057526 
L 128.551485 133.310299 
L 129.635084 124.033439 
L 131.260483 107.548858 
L 133.427681 85.595782 
L 134.51128 77.26911 
L 135.053079 74.233518 
L 135.594878 72.090346 
L 136.136678 70.986843 
L 136.678477 71.012917 
L 137.220277 72.216211 
L 137.762076 74.591942 
L 138.303876 78.121667 
L 138.845675 82.800528 
L 139.929274 95.198831 
L 141.012873 110.643223 
L 144.805469 168.109061 
L 145.889068 179.771106 
L 146.430868 184.052052 
L 146.972667 187.025596 
L 147.514467 188.558336 
L 148.056266 188.559397 
L 148.598066 186.895153 
L 149.139865 183.472384 
L 149.681665 178.333931 
L 150.765264 163.529543 
L 151.848863 144.365653 
L 154.01606 103.585094 
L 155.099659 87.259932 
L 156.183258 75.853915 
L 156.725058 72.170242 
L 157.266857 69.916225 
L 157.808657 69.046621 
L 158.350456 69.394362 
L 158.892256 70.783875 
L 159.434055 73.102806 
L 160.517654 79.912054 
L 162.143053 92.819527 
L 167.019248 133.362706 
L 168.102847 140.287769 
L 168.644646 142.786256 
L 169.186446 144.466319 
L 169.728245 145.273874 
L 170.270045 145.164015 
L 170.811844 144.105531 
L 171.353644 142.192221 
L 172.437242 136.543257 
L 175.688039 116.338285 
L 176.771638 111.315218 
L 178.397037 104.94643 
L 180.022435 98.650577 
L 182.189633 89.770349 
L 182.731432 87.99485 
L 183.273232 86.602137 
L 183.815031 85.720808 
L 184.356831 85.443974 
L 184.89863 85.865618 
L 185.44043 87.054433 
L 185.982229 89.012707 
L 186.524029 91.717978 
L 187.607628 99.182229 
L 188.691227 108.565356 
L 190.858424 128.296444 
L 191.942023 135.812229 
L 192.483823 138.452009 
L 193.025622 140.25198 
L 193.567422 141.187261 
L 194.109221 141.248509 
L 194.651021 140.378328 
L 195.19282 138.513926 
L 195.73462 135.74283 
L 196.276419 132.204581 
L 197.360018 122.827651 
L 198.443617 110.736741 
L 201.694414 71.744634 
L 202.236213 67.06594 
L 202.778013 63.532288 
L 203.319812 61.272576 
L 203.861612 60.376359 
L 204.403411 60.957683 
L 204.945211 63.098249 
L 205.48701 66.753708 
L 206.02881 71.793599 
L 207.112409 85.445872 
L 208.737807 111.455989 
L 210.363205 136.518989 
L 210.905005 143.176969 
L 211.446804 148.461665 
L 211.988604 152.228955 
L 212.530403 154.4108 
L 213.072203 154.90685 
L 213.614002 153.635106 
L 214.155802 150.671258 
L 214.697601 146.224546 
L 215.239401 140.450054 
L 216.323 125.324017 
L 218.490197 88.046253 
L 219.573796 70.43792 
L 220.657395 56.70711 
L 221.199195 52.014513 
L 221.740994 49.002464 
L 222.282794 47.770174 
L 222.824593 48.397392 
L 223.366393 50.932617 
L 223.908192 55.331332 
L 224.449992 61.444223 
L 225.533591 77.893816 
L 227.158989 108.649923 
L 228.784387 137.845635 
L 229.326187 145.443846 
L 229.867986 151.449018 
L 230.409786 155.709176 
L 230.951585 158.075899 
L 231.493385 158.42606 
L 232.035184 156.776742 
L 232.576984 153.259095 
L 233.118783 148.013221 
L 234.202382 133.050289 
L 235.82778 103.594362 
L 237.453179 73.790416 
L 238.536778 58.288219 
L 239.078577 52.739196 
L 239.620377 49.004455 
L 240.162176 47.167969 
L 240.703976 47.253076 
L 241.245775 49.321637 
L 241.787575 53.340154 
L 242.329374 59.091476 
L 243.412973 74.865593 
L 246.66377 131.931525 
L 247.205569 138.898293 
L 247.747369 144.314381 
L 248.289168 147.977619 
L 248.830968 149.757416 
L 249.372767 149.597327 
L 249.914567 147.470719 
L 250.456366 143.429609 
L 250.998166 137.644192 
L 252.081765 121.715569 
L 253.707163 91.01105 
L 255.332561 60.958502 
L 256.41616 46.142017 
L 256.95796 41.239752 
L 257.499759 38.299373 
L 258.041559 37.438125 
L 258.583358 38.698349 
L 259.125158 42.046657 
L 259.666957 47.390107 
L 260.208757 54.567139 
L 261.292356 73.205574 
L 264.543152 136.962985 
L 265.084952 144.691229 
L 265.626751 150.743877 
L 266.168551 154.907836 
L 266.71035 157.024785 
L 267.25215 157.024785 
L 267.793949 154.907836 
L 268.335749 150.743877 
L 268.877548 144.691229 
L 269.961147 127.815972 
L 271.586545 95.242603 
L 273.211944 63.291354 
L 274.295543 47.390107 
L 274.837342 42.046657 
L 275.379142 38.698349 
L 275.920941 37.438125 
L 276.462741 38.299373 
L 277.00454 41.239752 
L 277.54634 46.142017 
L 278.088139 52.808781 
L 279.171738 70.27182 
L 282.422535 130.334782 
L 282.964334 137.644192 
L 283.506134 143.429609 
L 284.047933 147.470719 
L 284.589733 149.597327 
L 285.131532 149.757416 
L 285.673332 147.977619 
L 286.215131 144.314381 
L 286.756931 138.898293 
L 287.84053 123.645164 
L 289.465928 94.324872 
L 291.091326 66.335079 
L 291.633126 59.091476 
L 292.174925 53.340154 
L 292.716725 49.321637 
L 293.258524 47.253076 
L 293.800324 47.167969 
L 294.342123 49.004455 
L 294.883923 52.739196 
L 295.425722 58.288219 
L 296.509321 73.790416 
L 298.13472 103.594362 
L 299.760118 133.050289 
L 300.843717 148.013221 
L 301.385516 153.259095 
L 301.927316 156.776742 
L 302.469115 158.42606 
L 303.010915 158.075899 
L 303.552714 155.709176 
L 304.094514 151.449018 
L 304.636313 145.443846 
L 305.719912 128.924779 
L 309.512508 61.444223 
L 310.054308 55.331332 
L 310.596107 50.932617 
L 311.137907 48.397392 
L 311.679706 47.770174 
L 312.221506 49.002464 
L 312.763305 52.014513 
L 313.305105 56.70711 
L 313.846904 62.927459 
L 314.930503 78.919824 
L 318.1813 133.426411 
L 319.264899 146.224546 
L 319.806698 150.671258 
L 320.348498 153.635106 
L 320.890297 154.90685 
L 321.432097 154.4108 
L 321.973896 152.228955 
L 322.515696 148.461665 
L 323.057495 143.176969 
L 324.141094 128.783356 
L 327.391891 78.07741 
L 328.47549 66.753708 
L 329.017289 63.098249 
L 329.559089 60.957683 
L 330.100888 60.376359 
L 330.642688 61.272576 
L 331.184487 63.532288 
L 331.726287 67.06594 
L 332.809886 77.357437 
L 334.435284 97.165406 
L 336.060682 117.056751 
L 337.144281 127.907053 
L 338.22788 135.74283 
L 338.76968 138.513926 
L 339.311479 140.378328 
L 339.853279 141.248509 
L 340.395078 141.187261 
L 340.936878 140.25198 
L 341.478677 138.452009 
L 342.020477 135.812229 
L 343.104076 128.296444 
L 344.729474 113.699808 
L 346.354872 99.182229 
L 347.438471 91.717978 
L 347.980271 89.012707 
L 348.52207 87.054433 
L 349.06387 85.865618 
L 349.605669 85.443974 
L 350.147469 85.720808 
L 350.689268 86.602137 
L 351.231068 87.99485 
L 352.314667 91.79899 
L 358.274461 116.338285 
L 359.35806 122.45406 
L 362.067057 139.619179 
L 362.608856 142.192221 
L 363.150656 144.105531 
L 363.692455 145.164015 
L 364.234255 145.273874 
L 364.776054 144.466319 
L 365.317854 142.786256 
L 365.859653 140.287769 
L 366.943252 133.362706 
L 368.568651 120.49988 
L 373.444846 79.912054 
L 374.528445 73.102806 
L 375.070244 70.783875 
L 375.612044 69.394362 
L 376.153843 69.046621 
L 376.695643 69.916225 
L 377.237442 72.170242 
L 377.779242 75.853915 
L 378.321041 80.906498 
L 379.40464 94.858758 
L 380.488239 113.210383 
L 383.197236 163.529543 
L 384.280835 178.333931 
L 384.822635 183.472384 
L 385.364434 186.895153 
L 385.906234 188.559397 
L 386.448033 188.558336 
L 386.989833 187.025596 
L 387.531632 184.052052 
L 388.073432 179.771106 
L 389.157031 168.109061 
L 390.240629 153.296372 
L 394.575025 88.549282 
L 395.658624 78.121667 
L 396.200424 74.591942 
L 396.742223 72.216211 
L 397.284023 71.012917 
L 397.825822 70.986843 
L 398.367622 72.090346 
L 398.909421 74.233518 
L 399.45122 77.26911 
L 400.534819 85.595782 
L 402.160218 101.799881 
L 404.327416 124.033439 
L 405.411015 133.310299 
L 406.494614 141.057526 
L 408.120012 150.515505 
L 409.74541 159.88633 
L 411.370809 170.800783 
L 412.996207 181.59609 
L 413.538007 184.341243 
L 414.079806 186.279418 
L 414.621606 187.303063 
L 415.163405 187.260165 
L 415.705205 186.058714 
L 416.247004 183.797122 
L 416.788804 180.616702 
L 417.872402 172.079208 
L 423.832197 119.073184 
L 425.999395 101.718701 
L 427.082993 94.656887 
L 428.166592 89.664659 
L 428.708392 88.083679 
L 429.250191 87.159862 
L 429.791991 86.871099 
L 430.33379 87.170713 
L 430.87559 87.990347 
L 431.417389 89.26371 
L 432.500988 92.860266 
L 434.126387 99.648204 
L 435.751785 106.303076 
L 436.835384 109.925222 
L 437.918983 112.400557 
L 438.460782 113.208262 
L 439.002582 113.742501 
L 439.544381 114.045148 
L 441.16978 114.547172 
L 441.711579 115.013556 
L 442.253379 115.906498 
L 442.795178 117.367773 
L 443.336978 119.519524 
L 443.878777 122.472764 
L 444.420576 126.349579 
L 445.504175 136.913499 
L 446.587774 150.594154 
L 450.380371 204.297856 
L 451.46397 214.396676 
L 452.005769 217.980717 
L 452.547569 220.586783 
L 453.089368 222.289225 
L 453.631167 223.229485 
L 454.172967 223.493254 
L 454.714766 223.095897 
L 455.256566 222.090817 
L 455.798365 220.611256 
L 456.881964 216.744557 
L 458.507363 210.061964 
L 459.049162 208.320877 
L 459.590962 207.152311 
L 460.132761 206.727633 
L 460.674561 207.142996 
L 461.21636 208.505486 
L 461.75816 210.971227 
L 462.299959 214.637006 
L 462.841758 219.491013 
L 463.925357 232.358892 
L 465.008956 248.847232 
L 466.634355 278.358614 
L 469.885152 339.838125 
L 469.885152 339.838125 
" clip-path="url(#paacd0a6025)" style="fill: none; stroke: #1f77b4; stroke-width: 1.5; stroke-linecap: square"/>
   </g>
   <g id="line2d_24">
    <path d="M 67.057245 241.04418 
L 71.933441 236.522342 
L 76.809636 145.249831 
L 81.685831 37.438125 
L 86.562026 55.421169 
L 91.438222 170.96489 
L 96.314417 208.976745 
L 101.190612 83.496051 
L 106.066807 71.48781 
L 110.943003 168.48818 
L 115.819198 151.332004 
L 120.695393 78.847669 
L 125.571588 110.70944 
L 130.447784 164.769548 
L 135.323979 104.87275 
L 140.200174 89.459513 
L 145.076369 139.590679 
L 149.952564 124.575131 
L 154.82876 91.296556 
L 159.704955 113.35239 
L 164.58115 128.726577 
L 169.457345 96.931333 
L 174.333541 100.59102 
L 179.209736 125.053971 
L 184.085931 99.71299 
L 188.962126 89.842449 
L 193.838322 116.177622 
L 198.714517 111.320468 
L 203.590712 87.936514 
L 208.466907 98.621824 
L 213.343102 111.062414 
L 218.219298 89.41929 
L 223.095493 92.104897 
L 227.971688 112.022268 
L 232.847883 96.571629 
L 237.724079 90.688974 
L 242.600274 101.269599 
L 247.476469 98.146448 
L 252.352664 88.130727 
L 257.22886 85.065392 
L 262.105055 105.245799 
L 266.98125 90.800472 
L 271.857445 105.245799 
L 276.73364 85.065392 
L 281.609836 88.130727 
L 286.486031 98.146448 
L 291.362226 101.269599 
L 296.238421 90.688974 
L 301.114617 96.571629 
L 305.990812 112.022268 
L 310.867007 92.104897 
L 315.743202 89.41929 
L 320.619398 111.062414 
L 325.495593 98.621824 
L 330.371788 87.936514 
L 335.247983 111.320468 
L 340.124178 116.177622 
L 345.000374 89.842449 
L 349.876569 99.71299 
L 354.752764 125.053971 
L 359.628959 100.59102 
L 364.505155 96.931333 
L 369.38135 128.726577 
L 374.257545 113.35239 
L 379.13374 91.296556 
L 384.009936 124.575131 
L 388.886131 139.590679 
L 393.762326 89.459513 
L 398.638521 104.87275 
L 403.514716 164.769548 
L 408.390912 110.70944 
L 413.267107 78.847651 
L 418.143302 151.331975 
L 423.019497 168.48819 
L 427.895693 71.487845 
L 432.771888 83.496023 
L 437.648083 208.97672 
L 442.524278 170.964875 
L 447.400474 55.421181 
L 452.276669 37.438125 
L 457.152864 145.249821 
L 462.029059 236.522345 
L 466.905255 241.044184 
" clip-path="url(#paacd0a6025)" style="fill: none; stroke: #ff7f0e; stroke-width: 1.5; stroke-linecap: square"/>
   </g>
   <g id="line2d_25">
    <path d="M 64.072159 268.629247 
L 64.350498 268.626481 
L 64.907176 269.765522 
L 66.020532 274.933179 
L 67.412226 281.952957 
L 67.690565 282.540266 
L 67.968904 282.590026 
L 68.247243 281.914404 
L 68.525582 280.459576 
L 69.08226 274.945864 
L 69.638938 265.992886 
L 70.473955 246.96007 
L 71.587311 214.815091 
L 74.927378 112.652723 
L 76.040734 86.406216 
L 76.875751 70.947156 
L 77.432428 62.611474 
L 78.267445 53.140688 
L 78.824123 48.479251 
L 79.380801 44.834636 
L 80.494157 40.682898 
L 80.772496 39.904027 
L 81.050835 39.550479 
L 81.329174 38.723836 
L 81.607513 38.658948 
L 82.164191 37.932823 
L 82.442529 37.93212 
L 82.720868 37.438125 
L 82.999207 37.763018 
L 83.277546 37.706797 
L 83.555885 37.827425 
L 83.834224 38.280564 
L 84.112563 38.292035 
L 85.504258 43.461041 
L 86.617614 52.870496 
L 87.174292 59.280475 
L 88.009308 71.241506 
L 88.844325 85.615647 
L 92.462731 153.099736 
L 93.297748 162.101463 
L 93.854426 165.695765 
L 94.411104 167.019032 
L 94.967782 165.47918 
L 95.246121 163.964301 
L 95.802799 159.495075 
L 96.637816 148.596638 
L 97.751171 129.293765 
L 100.8129 70.98425 
L 101.647917 60.16521 
L 101.926256 57.050183 
L 102.761272 52.399296 
L 103.31795 51.461208 
L 103.874628 53.429116 
L 104.152967 55.103296 
L 104.709645 59.676213 
L 105.823001 75.533079 
L 106.658018 90.782826 
L 108.328051 126.19786 
L 109.998085 160.169697 
L 110.833102 173.98856 
L 111.38978 181.230058 
L 111.946458 186.735577 
L 112.503136 190.23786 
L 113.059813 190.893212 
L 113.338152 190.205855 
L 113.89483 187.334716 
L 114.729847 177.723619 
L 115.564864 163.697271 
L 116.956559 134.940437 
L 118.626592 101.122465 
L 119.461609 87.813564 
L 120.296626 78.266603 
L 120.853304 73.726312 
L 121.409982 70.953064 
L 121.96666 70.063225 
L 122.244999 69.980704 
L 122.801676 70.809981 
L 123.915032 76.173288 
L 124.193371 77.652362 
L 128.925133 112.891248 
L 130.595167 123.715635 
L 131.430184 128.116127 
L 131.986862 130.411295 
L 132.54354 132.100611 
L 133.100217 133.098265 
L 133.656895 133.181749 
L 133.935234 132.961294 
L 134.491912 132.071552 
L 135.326929 129.513056 
L 136.718624 123.784328 
L 138.110318 118.233536 
L 139.223674 114.820997 
L 140.615369 111.855039 
L 142.285403 108.976363 
L 144.790453 104.401584 
L 145.903809 103.212998 
L 146.182148 102.985313 
L 147.017165 102.999108 
L 147.573843 103.319035 
L 148.408859 104.389616 
L 149.522215 106.483079 
L 152.583944 112.738309 
L 153.697299 114.257608 
L 154.532316 115.087514 
L 155.367333 115.655144 
L 156.20235 115.950674 
L 157.037367 115.975816 
L 157.872384 115.704306 
L 158.7074 115.105054 
L 159.542417 114.165314 
L 160.655773 112.44777 
L 162.325807 109.243745 
L 163.717501 106.633774 
L 164.552518 105.330774 
L 165.387535 104.337106 
L 166.222552 103.753343 
L 167.057569 103.534234 
L 167.614247 103.568521 
L 168.449263 103.92025 
L 169.28428 104.54623 
L 170.119297 105.3942 
L 171.232653 106.78656 
L 174.851059 111.557094 
L 175.686076 112.260054 
L 176.242754 112.546177 
L 176.799432 112.671599 
L 177.35611 112.619598 
L 178.191127 112.117922 
L 179.026143 111.145769 
L 179.86116 109.718569 
L 180.696177 107.890411 
L 182.087872 104.216848 
L 184.036244 99.011084 
L 184.871261 97.243218 
L 185.706278 95.989398 
L 186.541295 95.440257 
L 187.097973 95.483663 
L 187.654651 95.908349 
L 187.93299 96.188304 
L 188.768006 97.673097 
L 189.603023 99.771911 
L 190.716379 103.193538 
L 192.386413 108.46259 
L 193.22143 110.467237 
L 193.778107 111.386366 
L 194.334785 111.922319 
L 194.891463 111.959934 
L 195.448141 111.491979 
L 195.72648 111.153705 
L 196.561497 109.314077 
L 197.396514 106.714289 
L 199.066547 100.421286 
L 200.179903 96.528424 
L 201.01492 94.275934 
L 201.571598 93.199827 
L 202.128276 92.487582 
L 202.684954 92.250149 
L 203.241632 92.463545 
L 203.519971 92.645326 
L 204.354987 93.984529 
L 205.190004 96.050834 
L 206.30336 99.603863 
L 208.80841 108.356279 
L 209.643427 110.543899 
L 210.200105 111.56692 
L 210.756783 112.21494 
L 211.313461 112.452004 
L 211.870139 112.146942 
L 212.426817 111.361619 
L 212.705156 110.876765 
L 213.540173 108.513862 
L 214.375189 105.301458 
L 215.488545 100.067497 
L 218.271935 85.976666 
L 219.106951 82.703151 
L 219.941968 80.464786 
L 220.498646 79.522358 
L 221.055324 79.331955 
L 221.333663 79.447411 
L 221.890341 80.099325 
L 222.725358 82.548631 
L 223.560375 86.464146 
L 224.395391 91.627347 
L 225.508747 99.817498 
L 227.45712 114.312214 
L 228.292137 118.970532 
L 229.127153 121.896403 
L 229.683831 122.930752 
L 230.240509 122.974619 
L 230.518848 122.649008 
L 231.075526 121.561078 
L 231.910543 118.317897 
L 232.74556 113.69642 
L 233.858916 105.965325 
L 236.920644 82.616275 
L 237.755661 78.195813 
L 238.034 76.939992 
L 238.590678 75.562442 
L 238.869017 75.168772 
L 239.425694 75.070001 
L 239.982372 76.263891 
L 240.53905 78.406614 
L 240.817389 79.656545 
L 241.652406 85.200786 
L 243.044101 97.037144 
L 244.435795 109.030509 
L 245.270812 114.771213 
L 245.82749 117.745068 
L 246.384168 119.859396 
L 246.940846 121.021355 
L 247.219185 121.397238 
L 247.775863 121.351953 
L 248.332541 120.440474 
L 248.61088 119.83544 
L 249.445896 116.419689 
L 250.280913 111.238175 
L 251.11593 104.238716 
L 251.950947 95.470765 
L 253.064303 81.57326 
L 255.012675 56.506059 
L 255.847692 48.557768 
L 256.40437 44.71967 
L 256.961048 42.883437 
L 257.239387 42.715107 
L 257.796065 43.431498 
L 258.352743 46.658506 
L 258.909421 51.807423 
L 259.466098 58.645533 
L 260.301115 71.829169 
L 261.414471 92.714251 
L 263.084505 123.951294 
L 263.919522 136.289535 
L 264.754538 145.404682 
L 265.589555 151.230599 
L 266.146233 153.34048 
L 266.424572 153.985201 
L 266.98125 154.651969 
L 267.537928 153.985201 
L 267.816267 153.34048 
L 268.372945 151.230599 
L 269.207962 145.404682 
L 270.042978 136.289535 
L 270.877995 123.951294 
L 271.991351 103.666751 
L 273.939724 66.973908 
L 274.77474 54.665963 
L 275.609757 46.658506 
L 276.166435 43.431498 
L 276.723113 42.715107 
L 277.001452 42.883437 
L 277.55813 44.71967 
L 278.393147 50.81362 
L 279.506503 63.235726 
L 282.84657 104.238716 
L 283.681587 111.238175 
L 284.238265 114.87164 
L 284.794942 117.753967 
L 285.35162 119.83544 
L 285.908298 120.977743 
L 286.186637 121.351953 
L 286.743315 121.397238 
L 287.299993 120.509103 
L 287.578332 119.859396 
L 288.413349 116.348026 
L 289.248366 111.090377 
L 290.361721 102.039657 
L 292.588433 83.225278 
L 293.42345 78.406614 
L 293.980128 76.263891 
L 294.536806 75.070001 
L 295.093483 75.168772 
L 295.371822 75.562442 
L 295.9285 76.939992 
L 296.763517 80.914105 
L 297.876873 88.342966 
L 301.495279 115.453642 
L 302.330296 119.572602 
L 302.886974 121.561078 
L 303.443652 122.649008 
L 303.721991 122.974619 
L 304.278669 122.930752 
L 304.835347 121.896403 
L 305.113685 121.15754 
L 305.948702 117.523942 
L 306.783719 112.422819 
L 307.897075 104.186575 
L 309.845448 89.728591 
L 310.680464 84.934215 
L 311.515481 81.608425 
L 312.072159 80.099325 
L 312.628837 79.447411 
L 312.907176 79.331955 
L 313.463854 79.522358 
L 314.298871 81.07999 
L 315.133887 83.748547 
L 315.968904 87.260458 
L 317.08226 92.769367 
L 319.308972 104.084706 
L 320.422327 108.513862 
L 321.257344 110.876765 
L 322.092361 112.146942 
L 322.649039 112.452004 
L 323.205717 112.21494 
L 323.484056 111.977353 
L 324.040734 111.140782 
L 324.875751 109.188671 
L 325.989106 105.635827 
L 329.050835 95.243235 
L 329.885852 93.451625 
L 330.442529 92.645326 
L 330.999207 92.313791 
L 331.277546 92.250149 
L 331.834224 92.487582 
L 332.390902 93.199827 
L 332.94758 94.275934 
L 333.504258 95.685686 
L 334.617614 99.379587 
L 337.122664 108.510954 
L 337.957681 110.598662 
L 338.514359 111.491979 
L 339.071037 111.959934 
L 339.627715 111.922319 
L 340.184393 111.386366 
L 340.74107 110.467237 
L 341.297748 109.214923 
L 342.411104 105.939639 
L 344.637816 98.97521 
L 345.472832 97.097657 
L 346.307849 95.908349 
L 346.864527 95.483663 
L 347.421205 95.440257 
L 347.977883 95.764547 
L 348.256222 95.989398 
L 349.091239 97.243218 
L 349.926256 99.011084 
L 351.039611 101.877845 
L 353.266323 107.890411 
L 354.379679 110.250231 
L 355.214696 111.544959 
L 356.049712 112.339148 
L 356.884729 112.658802 
L 357.441407 112.641992 
L 358.276424 112.260054 
L 359.111441 111.557094 
L 359.946458 110.614876 
L 361.338152 108.732982 
L 363.564864 105.714206 
L 364.67822 104.54623 
L 365.513237 103.92025 
L 366.069914 103.660323 
L 366.626592 103.530835 
L 367.461609 103.648507 
L 368.018287 103.915772 
L 368.853304 104.659308 
L 369.688321 105.745306 
L 370.523338 107.116524 
L 371.915032 109.798395 
L 373.863405 113.369131 
L 374.976761 114.82583 
L 375.811777 115.540971 
L 376.646794 115.918656 
L 377.481811 115.985122 
L 378.316828 115.773478 
L 379.151845 115.305889 
L 379.986862 114.585745 
L 381.100217 113.150877 
L 381.935234 111.761971 
L 383.04859 109.52241 
L 385.275302 104.866195 
L 386.110318 103.653402 
L 386.666996 103.155979 
L 387.223674 102.930266 
L 387.780352 102.985313 
L 388.615369 103.705674 
L 389.728725 105.353883 
L 394.182148 113.542052 
L 395.017165 115.614926 
L 395.852182 118.233536 
L 396.687198 121.414992 
L 398.91391 130.477668 
L 399.470588 132.071552 
L 400.027266 132.961294 
L 400.305605 133.181749 
L 400.862283 133.098265 
L 401.41896 132.100611 
L 401.975638 130.411295 
L 402.532316 128.116127 
L 403.367333 123.715635 
L 404.480689 116.701727 
L 406.7074 100.838414 
L 409.769129 77.652362 
L 411.160824 70.809981 
L 411.439162 70.487425 
L 411.717501 69.980704 
L 411.99584 70.063225 
L 412.552518 70.953064 
L 413.387535 75.843684 
L 413.944213 80.893333 
L 414.77923 92.035484 
L 415.614247 106.34938 
L 416.727602 128.920685 
L 418.675975 169.00614 
L 419.510992 181.449429 
L 420.06767 187.334716 
L 420.624348 190.205855 
L 420.902687 190.893212 
L 421.459364 190.23786 
L 422.016042 186.735577 
L 422.57272 181.230058 
L 423.129398 173.98856 
L 423.964415 160.169697 
L 425.077771 138.185408 
L 427.86116 80.021581 
L 428.974516 63.33945 
L 429.531194 57.465216 
L 430.087872 53.429116 
L 430.64455 51.461208 
L 431.201228 52.399296 
L 431.479566 53.418432 
L 432.036244 57.050183 
L 432.871261 66.833804 
L 433.984617 85.020997 
L 437.603023 152.638406 
L 438.43804 161.768753 
L 438.994718 165.47918 
L 439.551396 167.019032 
L 440.108074 165.695765 
L 440.664752 162.101463 
L 440.943091 159.824884 
L 441.778107 149.01295 
L 442.891463 129.749338 
L 445.953192 71.241506 
L 446.788208 59.280475 
L 447.344886 52.870496 
L 447.901564 47.609384 
L 448.736581 42.372507 
L 449.293259 39.966565 
L 449.571598 39.309639 
L 449.849937 38.292035 
L 450.128276 38.280564 
L 450.406615 37.827425 
L 450.684954 37.706797 
L 450.963293 37.763018 
L 451.241632 37.438125 
L 451.519971 37.93212 
L 451.798309 37.932823 
L 452.354987 38.658948 
L 452.633326 38.723836 
L 452.911665 39.550479 
L 453.190004 39.904027 
L 454.025021 42.202035 
L 455.416716 50.299952 
L 456.530072 62.611474 
L 457.086749 70.947156 
L 457.643427 80.775416 
L 458.756783 105.373193 
L 460.148478 144.229543 
L 463.766884 253.917884 
L 464.601901 270.842068 
L 465.158579 278.151948 
L 465.715257 281.914404 
L 465.993596 282.590026 
L 466.271935 282.540266 
L 466.550274 281.952957 
L 467.106951 279.515088 
L 469.055324 269.765522 
L 469.612002 268.626481 
L 469.890341 268.629247 
L 469.890341 268.629247 
" clip-path="url(#paacd0a6025)" style="fill: none; stroke: #2ca02c; stroke-width: 1.5; stroke-linecap: square"/>
   </g>
   <g id="line2d_26">
    <path d="M 470.156051 354.958125 
L 470.156051 22.318125 
" clip-path="url(#paacd0a6025)" style="fill: none; stroke-dasharray: 5.55,2.4; stroke-dashoffset: 0; stroke: #0000ff; stroke-width: 1.5"/>
   </g>
   <g id="line2d_27">
    <path d="M 63.806449 354.958125 
L 63.806449 22.318125 
" clip-path="url(#paacd0a6025)" style="fill: none; stroke-dasharray: 5.55,2.4; stroke-dashoffset: 0; stroke: #ff0000; stroke-width: 1.5"/>
   </g>
   <g id="patch_3">
    <path d="M 43.78125 354.958125 
L 43.78125 22.318125 
" style="fill: none; stroke: #000000; stroke-width: 0.8; stroke-linejoin: miter; stroke-linecap: square"/>
   </g>
   <g id="patch_4">
    <path d="M 490.18125 354.958125 
L 490.18125 22.318125 
" style="fill: none; stroke: #000000; stroke-width: 0.8; stroke-linejoin: miter; stroke-linecap: square"/>
   </g>
   <g id="patch_5">
    <path d="M 43.78125 354.958125 
L 490.18125 354.958125 
" style="fill: none; stroke: #000000; stroke-width: 0.8; stroke-linejoin: miter; stroke-linecap: square"/>
   </g>
   <g id="patch_6">
    <path d="M 43.78125 22.318125 
L 490.18125 22.318125 
" style="fill: none; stroke: #000000; stroke-width: 0.8; stroke-linejoin: miter; stroke-linecap: square"/>
   </g>
   <g id="text_14">
    <!-- E-field Profile at Aperture -->
    <g transform="translate(191.425312 16.318125) scale(0.12 -0.12)">
     <defs>
      <path id="DejaVuSans-50" d="M 1259 4147 
L 1259 2394 
L 2053 2394 
Q 2494 2394 2734 2622 
Q 2975 2850 2975 3272 
Q 2975 3691 2734 3919 
Q 2494 4147 2053 4147 
L 1259 4147 
z
M 628 4666 
L 2053 4666 
Q 2838 4666 3239 4311 
Q 3641 3956 3641 3272 
Q 3641 2581 3239 2228 
Q 2838 1875 2053 1875 
L 1259 1875 
L 1259 0 
L 628 0 
L 628 4666 
z
" transform="scale(0.015625)"/>
      <path id="DejaVuSans-41" d="M 2188 4044 
L 1331 1722 
L 3047 1722 
L 2188 4044 
z
M 1831 4666 
L 2547 4666 
L 4325 0 
L 3669 0 
L 3244 1197 
L 1141 1197 
L 716 0 
L 50 0 
L 1831 4666 
z
" transform="scale(0.015625)"/>
      <path id="DejaVuSans-70" d="M 1159 525 
L 1159 -1331 
L 581 -1331 
L 581 3500 
L 1159 3500 
L 1159 2969 
Q 1341 3281 1617 3432 
Q 1894 3584 2278 3584 
Q 2916 3584 3314 3078 
Q 3713 2572 3713 1747 
Q 3713 922 3314 415 
Q 2916 -91 2278 -91 
Q 1894 -91 1617 61 
Q 1341 213 1159 525 
z
M 3116 1747 
Q 3116 2381 2855 2742 
Q 2594 3103 2138 3103 
Q 1681 3103 1420 2742 
Q 1159 2381 1159 1747 
Q 1159 1113 1420 752 
Q 1681 391 2138 391 
Q 2594 391 2855 752 
Q 3116 1113 3116 1747 
z
" transform="scale(0.015625)"/>
     </defs>
     <use xlink:href="#DejaVuSans-45"/>
     <use xlink:href="#DejaVuSans-2d" transform="translate(63.183594 0)"/>
     <use xlink:href="#DejaVuSans-66" transform="translate(99.267578 0)"/>
     <use xlink:href="#DejaVuSans-69" transform="translate(134.472656 0)"/>
     <use xlink:href="#DejaVuSans-65" transform="translate(162.255859 0)"/>
     <use xlink:href="#DejaVuSans-6c" transform="translate(223.779297 0)"/>
     <use xlink:href="#DejaVuSans-64" transform="translate(251.5625 0)"/>
     <use xlink:href="#DejaVuSans-20" transform="translate(315.039062 0)"/>
     <use xlink:href="#DejaVuSans-50" transform="translate(346.826172 0)"/>
     <use xlink:href="#DejaVuSans-72" transform="translate(405.378906 0)"/>
     <use xlink:href="#DejaVuSans-6f" transform="translate(444.242188 0)"/>
     <use xlink:href="#DejaVuSans-66" transform="translate(505.423828 0)"/>
     <use xlink:href="#DejaVuSans-69" transform="translate(540.628906 0)"/>
     <use xlink:href="#DejaVuSans-6c" transform="translate(568.412109 0)"/>
     <use xlink:href="#DejaVuSans-65" transform="translate(596.195312 0)"/>
     <use xlink:href="#DejaVuSans-20" transform="translate(657.71875 0)"/>
     <use xlink:href="#DejaVuSans-61" transform="translate(689.505859 0)"/>
     <use xlink:href="#DejaVuSans-74" transform="translate(750.785156 0)"/>
     <use xlink:href="#DejaVuSans-20" transform="translate(789.994141 0)"/>
     <use xlink:href="#DejaVuSans-41" transform="translate(821.78125 0)"/>
     <use xlink:href="#DejaVuSans-70" transform="translate(890.189453 0)"/>
     <use xlink:href="#DejaVuSans-65" transform="translate(953.666016 0)"/>
     <use xlink:href="#DejaVuSans-72" transform="translate(1015.189453 0)"/>
     <use xlink:href="#DejaVuSans-74" transform="translate(1056.302734 0)"/>
     <use xlink:href="#DejaVuSans-75" transform="translate(1095.511719 0)"/>
     <use xlink:href="#DejaVuSans-72" transform="translate(1158.890625 0)"/>
     <use xlink:href="#DejaVuSans-65" transform="translate(1197.753906 0)"/>
    </g>
   </g>
   <g id="legend_1">
    <g id="patch_7">
     <path d="M 209.153906 349.958125 
L 324.808594 349.958125 
Q 326.808594 349.958125 326.808594 347.958125 
L 326.808594 275.5675 
Q 326.808594 273.5675 324.808594 273.5675 
L 209.153906 273.5675 
Q 207.153906 273.5675 207.153906 275.5675 
L 207.153906 347.958125 
Q 207.153906 349.958125 209.153906 349.958125 
z
" style="fill: #ffffff; opacity: 0.8; stroke: #cccccc; stroke-linejoin: miter"/>
    </g>
    <g id="line2d_28">
     <path d="M 211.153906 281.665937 
L 221.153906 281.665937 
L 231.153906 281.665937 
" style="fill: none; stroke: #1f77b4; stroke-width: 1.5; stroke-linecap: square"/>
    </g>
    <g id="text_15">
     <!-- MEEPSAT FDTD -->
     <g transform="translate(239.153906 285.165937) scale(0.1 -0.1)">
      <defs>
       <path id="DejaVuSans-53" d="M 3425 4513 
L 3425 3897 
Q 3066 4069 2747 4153 
Q 2428 4238 2131 4238 
Q 1616 4238 1336 4038 
Q 1056 3838 1056 3469 
Q 1056 3159 1242 3001 
Q 1428 2844 1947 2747 
L 2328 2669 
Q 3034 2534 3370 2195 
Q 3706 1856 3706 1288 
Q 3706 609 3251 259 
Q 2797 -91 1919 -91 
Q 1588 -91 1214 -16 
Q 841 59 441 206 
L 441 856 
Q 825 641 1194 531 
Q 1563 422 1919 422 
Q 2459 422 2753 634 
Q 3047 847 3047 1241 
Q 3047 1584 2836 1778 
Q 2625 1972 2144 2069 
L 1759 2144 
Q 1053 2284 737 2584 
Q 422 2884 422 3419 
Q 422 4038 858 4394 
Q 1294 4750 2059 4750 
Q 2388 4750 2728 4690 
Q 3069 4631 3425 4513 
z
" transform="scale(0.015625)"/>
       <path id="DejaVuSans-54" d="M -19 4666 
L 3928 4666 
L 3928 4134 
L 2272 4134 
L 2272 0 
L 1638 0 
L 1638 4134 
L -19 4134 
L -19 4666 
z
" transform="scale(0.015625)"/>
       <path id="DejaVuSans-46" d="M 628 4666 
L 3309 4666 
L 3309 4134 
L 1259 4134 
L 1259 2759 
L 3109 2759 
L 3109 2228 
L 1259 2228 
L 1259 0 
L 628 0 
L 628 4666 
z
" transform="scale(0.015625)"/>
       <path id="DejaVuSans-44" d="M 1259 4147 
L 1259 519 
L 2022 519 
Q 2988 519 3436 956 
Q 3884 1394 3884 2338 
Q 3884 3275 3436 3711 
Q 2988 4147 2022 4147 
L 1259 4147 
z
M 628 4666 
L 1925 4666 
Q 3281 4666 3915 4102 
Q 4550 3538 4550 2338 
Q 4550 1131 3912 565 
Q 3275 0 1925 0 
L 628 0 
L 628 4666 
z
" transform="scale(0.015625)"/>
      </defs>
      <use xlink:href="#DejaVuSans-4d"/>
      <use xlink:href="#DejaVuSans-45" transform="translate(86.279297 0)"/>
      <use xlink:href="#DejaVuSans-45" transform="translate(149.462891 0)"/>
      <use xlink:href="#DejaVuSans-50" transform="translate(212.646484 0)"/>
      <use xlink:href="#DejaVuSans-53" transform="translate(272.949219 0)"/>
      <use xlink:href="#DejaVuSans-41" transform="translate(338.300781 0)"/>
      <use xlink:href="#DejaVuSans-54" transform="translate(398.958984 0)"/>
      <use xlink:href="#DejaVuSans-20" transform="translate(460.042969 0)"/>
      <use xlink:href="#DejaVuSans-46" transform="translate(491.830078 0)"/>
      <use xlink:href="#DejaVuSans-44" transform="translate(549.349609 0)"/>
      <use xlink:href="#DejaVuSans-54" transform="translate(626.351562 0)"/>
      <use xlink:href="#DejaVuSans-44" transform="translate(687.435547 0)"/>
     </g>
    </g>
    <g id="line2d_29">
     <path d="M 211.153906 296.344062 
L 221.153906 296.344062 
L 231.153906 296.344062 
" style="fill: none; stroke: #ff7f0e; stroke-width: 1.5; stroke-linecap: square"/>
    </g>
    <g id="text_16">
     <!-- GRASP MoM -->
     <g transform="translate(239.153906 299.844062) scale(0.1 -0.1)">
      <defs>
       <path id="DejaVuSans-47" d="M 3809 666 
L 3809 1919 
L 2778 1919 
L 2778 2438 
L 4434 2438 
L 4434 434 
Q 4069 175 3628 42 
Q 3188 -91 2688 -91 
Q 1594 -91 976 548 
Q 359 1188 359 2328 
Q 359 3472 976 4111 
Q 1594 4750 2688 4750 
Q 3144 4750 3555 4637 
Q 3966 4525 4313 4306 
L 4313 3634 
Q 3963 3931 3569 4081 
Q 3175 4231 2741 4231 
Q 1884 4231 1454 3753 
Q 1025 3275 1025 2328 
Q 1025 1384 1454 906 
Q 1884 428 2741 428 
Q 3075 428 3337 486 
Q 3600 544 3809 666 
z
" transform="scale(0.015625)"/>
       <path id="DejaVuSans-52" d="M 2841 2188 
Q 3044 2119 3236 1894 
Q 3428 1669 3622 1275 
L 4263 0 
L 3584 0 
L 2988 1197 
Q 2756 1666 2539 1819 
Q 2322 1972 1947 1972 
L 1259 1972 
L 1259 0 
L 628 0 
L 628 4666 
L 2053 4666 
Q 2853 4666 3247 4331 
Q 3641 3997 3641 3322 
Q 3641 2881 3436 2590 
Q 3231 2300 2841 2188 
z
M 1259 4147 
L 1259 2491 
L 2053 2491 
Q 2509 2491 2742 2702 
Q 2975 2913 2975 3322 
Q 2975 3731 2742 3939 
Q 2509 4147 2053 4147 
L 1259 4147 
z
" transform="scale(0.015625)"/>
      </defs>
      <use xlink:href="#DejaVuSans-47"/>
      <use xlink:href="#DejaVuSans-52" transform="translate(77.490234 0)"/>
      <use xlink:href="#DejaVuSans-41" transform="translate(142.972656 0)"/>
      <use xlink:href="#DejaVuSans-53" transform="translate(211.380859 0)"/>
      <use xlink:href="#DejaVuSans-50" transform="translate(274.857422 0)"/>
      <use xlink:href="#DejaVuSans-20" transform="translate(335.160156 0)"/>
      <use xlink:href="#DejaVuSans-4d" transform="translate(366.947266 0)"/>
      <use xlink:href="#DejaVuSans-6f" transform="translate(453.226562 0)"/>
      <use xlink:href="#DejaVuSans-4d" transform="translate(514.408203 0)"/>
     </g>
    </g>
    <g id="line2d_30">
     <path d="M 211.153906 311.022187 
L 221.153906 311.022187 
L 231.153906 311.022187 
" style="fill: none; stroke: #2ca02c; stroke-width: 1.5; stroke-linecap: square"/>
    </g>
    <g id="text_17">
     <!-- CST FIT -->
     <g transform="translate(239.153906 314.522187) scale(0.1 -0.1)">
      <defs>
       <path id="DejaVuSans-49" d="M 628 4666 
L 1259 4666 
L 1259 0 
L 628 0 
L 628 4666 
z
" transform="scale(0.015625)"/>
      </defs>
      <use xlink:href="#DejaVuSans-43"/>
      <use xlink:href="#DejaVuSans-53" transform="translate(69.824219 0)"/>
      <use xlink:href="#DejaVuSans-54" transform="translate(133.300781 0)"/>
      <use xlink:href="#DejaVuSans-20" transform="translate(194.384766 0)"/>
      <use xlink:href="#DejaVuSans-46" transform="translate(226.171875 0)"/>
      <use xlink:href="#DejaVuSans-49" transform="translate(283.691406 0)"/>
      <use xlink:href="#DejaVuSans-54" transform="translate(313.183594 0)"/>
     </g>
    </g>
    <g id="line2d_31">
     <path d="M 211.153906 325.700312 
L 221.153906 325.700312 
L 231.153906 325.700312 
" style="fill: none; stroke-dasharray: 5.55,2.4; stroke-dashoffset: 0; stroke: #0000ff; stroke-width: 1.5"/>
    </g>
    <g id="text_18">
     <!-- Aperture Edge + -->
     <g transform="translate(239.153906 329.200312) scale(0.1 -0.1)">
      <defs>
       <path id="DejaVuSans-2b" d="M 2944 4013 
L 2944 2272 
L 4684 2272 
L 4684 1741 
L 2944 1741 
L 2944 0 
L 2419 0 
L 2419 1741 
L 678 1741 
L 678 2272 
L 2419 2272 
L 2419 4013 
L 2944 4013 
z
" transform="scale(0.015625)"/>
      </defs>
      <use xlink:href="#DejaVuSans-41"/>
      <use xlink:href="#DejaVuSans-70" transform="translate(68.408203 0)"/>
      <use xlink:href="#DejaVuSans-65" transform="translate(131.884766 0)"/>
      <use xlink:href="#DejaVuSans-72" transform="translate(193.408203 0)"/>
      <use xlink:href="#DejaVuSans-74" transform="translate(234.521484 0)"/>
      <use xlink:href="#DejaVuSans-75" transform="translate(273.730469 0)"/>
      <use xlink:href="#DejaVuSans-72" transform="translate(337.109375 0)"/>
      <use xlink:href="#DejaVuSans-65" transform="translate(375.972656 0)"/>
      <use xlink:href="#DejaVuSans-20" transform="translate(437.496094 0)"/>
      <use xlink:href="#DejaVuSans-45" transform="translate(469.283203 0)"/>
      <use xlink:href="#DejaVuSans-64" transform="translate(532.466797 0)"/>
      <use xlink:href="#DejaVuSans-67" transform="translate(595.943359 0)"/>
      <use xlink:href="#DejaVuSans-65" transform="translate(659.419922 0)"/>
      <use xlink:href="#DejaVuSans-20" transform="translate(720.943359 0)"/>
      <use xlink:href="#DejaVuSans-2b" transform="translate(752.730469 0)"/>
     </g>
    </g>
    <g id="line2d_32">
     <path d="M 211.153906 340.378437 
L 221.153906 340.378437 
L 231.153906 340.378437 
" style="fill: none; stroke-dasharray: 5.55,2.4; stroke-dashoffset: 0; stroke: #ff0000; stroke-width: 1.5"/>
    </g>
    <g id="text_19">
     <!-- Aperture Edge - -->
     <g transform="translate(239.153906 343.878437) scale(0.1 -0.1)">
      <use xlink:href="#DejaVuSans-41"/>
      <use xlink:href="#DejaVuSans-70" transform="translate(68.408203 0)"/>
      <use xlink:href="#DejaVuSans-65" transform="translate(131.884766 0)"/>
      <use xlink:href="#DejaVuSans-72" transform="translate(193.408203 0)"/>
      <use xlink:href="#DejaVuSans-74" transform="translate(234.521484 0)"/>
      <use xlink:href="#DejaVuSans-75" transform="translate(273.730469 0)"/>
      <use xlink:href="#DejaVuSans-72" transform="translate(337.109375 0)"/>
      <use xlink:href="#DejaVuSans-65" transform="translate(375.972656 0)"/>
      <use xlink:href="#DejaVuSans-20" transform="translate(437.496094 0)"/>
      <use xlink:href="#DejaVuSans-45" transform="translate(469.283203 0)"/>
      <use xlink:href="#DejaVuSans-64" transform="translate(532.466797 0)"/>
      <use xlink:href="#DejaVuSans-67" transform="translate(595.943359 0)"/>
      <use xlink:href="#DejaVuSans-65" transform="translate(659.419922 0)"/>
      <use xlink:href="#DejaVuSans-20" transform="translate(720.943359 0)"/>
      <use xlink:href="#DejaVuSans-2d" transform="translate(752.730469 0)"/>
     </g>
    </g>
   </g>
  </g>
 </g>
 <defs>
  <clipPath id="paacd0a6025">
   <rect x="43.78125" y="22.318125" width="446.4" height="332.64"/>
  </clipPath>
 </defs>
</svg>
