<?xml version="1.0" encoding="utf-8" standalone="no"?>
<!DOCTYPE svg PUBLIC "-//W3C//DTD SVG 1.1//EN"
  "http://www.w3.org/Graphics/SVG/1.1/DTD/svg11.dtd">
<svg xmlns:xlink="http://www.w3.org/1999/xlink" width="513.715625pt" height="381.195469pt" viewBox="0 0 513.715625 381.195469" xmlns="http://www.w3.org/2000/svg" version="1.1">
 <metadata>
  <rdf:RDF xmlns:dc="http://purl.org/dc/elements/1.1/" xmlns:cc="http://creativecommons.org/ns#" xmlns:rdf="http://www.w3.org/1999/02/22-rdf-syntax-ns#">
   <cc:Work>
    <dc:type rdf:resource="http://purl.org/dc/dcmitype/StillImage"/>
    <dc:date>2026-06-07T15:27:56.788976</dc:date>
    <dc:format>image/svg+xml</dc:format>
    <dc:creator>
     <cc:Agent>
      <dc:title>Matplotlib v3.10.8, https://matplotlib.org/</dc:title>
     </cc:Agent>
    </dc:creator>
   </cc:Work>
  </rdf:RDF>
 </metadata>
 <defs>
  <style type="text/css">*{stroke-linejoin: round; stroke-linecap: butt}</style>
 </defs>
 <g id="figure_1">
  <g id="patch_1">
   <path d="M 0 381.195469 
L 513.715625 381.195469 
L 513.715625 0 
L 0 0 
z
" style="fill: #ffffff"/>
  </g>
  <g id="axes_1">
   <g id="patch_2">
    <path d="M 48.982813 343.639219 
L 495.382812 343.639219 
L 495.382812 10.999219 
L 48.982813 10.999219 
z
" style="fill: #ffffff"/>
   </g>
   <g id="matplotlib.axis_1">
    <g id="xtick_1">
     <g id="line2d_1">
      <defs>
       <path id="m1103ab09f1" d="M 0 0 
L 0 3.5 
" style="stroke: #000000; stroke-width: 0.8"/>
      </defs>
      <g>
       <use xlink:href="#m1103ab09f1" x="48.982813" y="343.639219" style="stroke: #000000; stroke-width: 0.8"/>
      </g>
     </g>
     <g id="text_1">
      <!-- 0.0 -->
      <g transform="translate(41.03125 358.237656) scale(0.1 -0.1)">
       <defs>
        <path id="DejaVuSans-30" d="M 2034 4250 
Q 1547 4250 1301 3770 
Q 1056 3291 1056 2328 
Q 1056 1369 1301 889 
Q 1547 409 2034 409 
Q 2525 409 2770 889 
Q 3016 1369 3016 2328 
Q 3016 3291 2770 3770 
Q 2525 4250 2034 4250 
z
M 2034 4750 
Q 2819 4750 3233 4129 
Q 3647 3509 3647 2328 
Q 3647 1150 3233 529 
Q 2819 -91 2034 -91 
Q 1250 -91 836 529 
Q 422 1150 422 2328 
Q 422 3509 836 4129 
Q 1250 4750 2034 4750 
z
" transform="scale(0.015625)"/>
        <path id="DejaVuSans-2e" d="M 684 794 
L 1344 794 
L 1344 0 
L 684 0 
L 684 794 
z
" transform="scale(0.015625)"/>
       </defs>
       <use xlink:href="#DejaVuSans-30"/>
       <use xlink:href="#DejaVuSans-2e" transform="translate(63.623047 0)"/>
       <use xlink:href="#DejaVuSans-30" transform="translate(95.410156 0)"/>
      </g>
     </g>
    </g>
    <g id="xtick_2">
     <g id="line2d_2">
      <g>
       <use xlink:href="#m1103ab09f1" x="104.782813" y="343.639219" style="stroke: #000000; stroke-width: 0.8"/>
      </g>
     </g>
     <g id="text_2">
      <!-- 2.5 -->
      <g transform="translate(96.83125 358.237656) scale(0.1 -0.1)">
       <defs>
        <path id="DejaVuSans-32" d="M 1228 531 
L 3431 531 
L 3431 0 
L 469 0 
L 469 531 
Q 828 903 1448 1529 
Q 2069 2156 2228 2338 
Q 2531 2678 2651 2914 
Q 2772 3150 2772 3378 
Q 2772 3750 2511 3984 
Q 2250 4219 1831 4219 
Q 1534 4219 1204 4116 
Q 875 4013 500 3803 
L 500 4441 
Q 881 4594 1212 4672 
Q 1544 4750 1819 4750 
Q 2544 4750 2975 4387 
Q 3406 4025 3406 3419 
Q 3406 3131 3298 2873 
Q 3191 2616 2906 2266 
Q 2828 2175 2409 1742 
Q 1991 1309 1228 531 
z
" transform="scale(0.015625)"/>
        <path id="DejaVuSans-35" d="M 691 4666 
L 3169 4666 
L 3169 4134 
L 1269 4134 
L 1269 2991 
Q 1406 3038 1543 3061 
Q 1681 3084 1819 3084 
Q 2600 3084 3056 2656 
Q 3513 2228 3513 1497 
Q 3513 744 3044 326 
Q 2575 -91 1722 -91 
Q 1428 -91 1123 -41 
Q 819 9 494 109 
L 494 744 
Q 775 591 1075 516 
Q 1375 441 1709 441 
Q 2250 441 2565 725 
Q 2881 1009 2881 1497 
Q 2881 1984 2565 2268 
Q 2250 2553 1709 2553 
Q 1456 2553 1204 2497 
Q 953 2441 691 2322 
L 691 4666 
z
" transform="scale(0.015625)"/>
       </defs>
       <use xlink:href="#DejaVuSans-32"/>
       <use xlink:href="#DejaVuSans-2e" transform="translate(63.623047 0)"/>
       <use xlink:href="#DejaVuSans-35" transform="translate(95.410156 0)"/>
      </g>
     </g>
    </g>
    <g id="xtick_3">
     <g id="line2d_3">
      <g>
       <use xlink:href="#m1103ab09f1" x="160.582812" y="343.639219" style="stroke: #000000; stroke-width: 0.8"/>
      </g>
     </g>
     <g id="text_3">
      <!-- 5.0 -->
      <g transform="translate(152.63125 358.237656) scale(0.1 -0.1)">
       <use xlink:href="#DejaVuSans-35"/>
       <use xlink:href="#DejaVuSans-2e" transform="translate(63.623047 0)"/>
       <use xlink:href="#DejaVuSans-30" transform="translate(95.410156 0)"/>
      </g>
     </g>
    </g>
    <g id="xtick_4">
     <g id="line2d_4">
      <g>
       <use xlink:href="#m1103ab09f1" x="216.382812" y="343.639219" style="stroke: #000000; stroke-width: 0.8"/>
      </g>
     </g>
     <g id="text_4">
      <!-- 7.5 -->
      <g transform="translate(208.43125 358.237656) scale(0.1 -0.1)">
       <defs>
        <path id="DejaVuSans-37" d="M 525 4666 
L 3525 4666 
L 3525 4397 
L 1831 0 
L 1172 0 
L 2766 4134 
L 525 4134 
L 525 4666 
z
" transform="scale(0.015625)"/>
       </defs>
       <use xlink:href="#DejaVuSans-37"/>
       <use xlink:href="#DejaVuSans-2e" transform="translate(63.623047 0)"/>
       <use xlink:href="#DejaVuSans-35" transform="translate(95.410156 0)"/>
      </g>
     </g>
    </g>
    <g id="xtick_5">
     <g id="line2d_5">
      <g>
       <use xlink:href="#m1103ab09f1" x="272.182813" y="343.639219" style="stroke: #000000; stroke-width: 0.8"/>
      </g>
     </g>
     <g id="text_5">
      <!-- 10.0 -->
      <g transform="translate(261.05 358.237656) scale(0.1 -0.1)">
       <defs>
        <path id="DejaVuSans-31" d="M 794 531 
L 1825 531 
L 1825 4091 
L 703 3866 
L 703 4441 
L 1819 4666 
L 2450 4666 
L 2450 531 
L 3481 531 
L 3481 0 
L 794 0 
L 794 531 
z
" transform="scale(0.015625)"/>
       </defs>
       <use xlink:href="#DejaVuSans-31"/>
       <use xlink:href="#DejaVuSans-30" transform="translate(63.623047 0)"/>
       <use xlink:href="#DejaVuSans-2e" transform="translate(127.246094 0)"/>
       <use xlink:href="#DejaVuSans-30" transform="translate(159.033203 0)"/>
      </g>
     </g>
    </g>
    <g id="xtick_6">
     <g id="line2d_6">
      <g>
       <use xlink:href="#m1103ab09f1" x="327.982813" y="343.639219" style="stroke: #000000; stroke-width: 0.8"/>
      </g>
     </g>
     <g id="text_6">
      <!-- 12.5 -->
      <g transform="translate(316.85 358.237656) scale(0.1 -0.1)">
       <use xlink:href="#DejaVuSans-31"/>
       <use xlink:href="#DejaVuSans-32" transform="translate(63.623047 0)"/>
       <use xlink:href="#DejaVuSans-2e" transform="translate(127.246094 0)"/>
       <use xlink:href="#DejaVuSans-35" transform="translate(159.033203 0)"/>
      </g>
     </g>
    </g>
    <g id="xtick_7">
     <g id="line2d_7">
      <g>
       <use xlink:href="#m1103ab09f1" x="383.782813" y="343.639219" style="stroke: #000000; stroke-width: 0.8"/>
      </g>
     </g>
     <g id="text_7">
      <!-- 15.0 -->
      <g transform="translate(372.65 358.237656) scale(0.1 -0.1)">
       <use xlink:href="#DejaVuSans-31"/>
       <use xlink:href="#DejaVuSans-35" transform="translate(63.623047 0)"/>
       <use xlink:href="#DejaVuSans-2e" transform="translate(127.246094 0)"/>
       <use xlink:href="#DejaVuSans-30" transform="translate(159.033203 0)"/>
      </g>
     </g>
    </g>
    <g id="xtick_8">
     <g id="line2d_8">
      <g>
       <use xlink:href="#m1103ab09f1" x="439.582813" y="343.639219" style="stroke: #000000; stroke-width: 0.8"/>
      </g>
     </g>
     <g id="text_8">
      <!-- 17.5 -->
      <g transform="translate(428.45 358.237656) scale(0.1 -0.1)">
       <use xlink:href="#DejaVuSans-31"/>
       <use xlink:href="#DejaVuSans-37" transform="translate(63.623047 0)"/>
       <use xlink:href="#DejaVuSans-2e" transform="translate(127.246094 0)"/>
       <use xlink:href="#DejaVuSans-35" transform="translate(159.033203 0)"/>
      </g>
     </g>
    </g>
    <g id="xtick_9">
     <g id="line2d_9">
      <g>
       <use xlink:href="#m1103ab09f1" x="495.382812" y="343.639219" style="stroke: #000000; stroke-width: 0.8"/>
      </g>
     </g>
     <g id="text_9">
      <!-- 20.0 -->
      <g transform="translate(484.25 358.237656) scale(0.1 -0.1)">
       <use xlink:href="#DejaVuSans-32"/>
       <use xlink:href="#DejaVuSans-30" transform="translate(63.623047 0)"/>
       <use xlink:href="#DejaVuSans-2e" transform="translate(127.246094 0)"/>
       <use xlink:href="#DejaVuSans-30" transform="translate(159.033203 0)"/>
      </g>
     </g>
    </g>
    <g id="text_10">
     <!-- Angle (degrees) -->
     <g transform="translate(232.3375 371.915781) scale(0.1 -0.1)">
      <defs>
       <path id="DejaVuSans-41" d="M 2188 4044 
L 1331 1722 
L 3047 1722 
L 2188 4044 
z
M 1831 4666 
L 2547 4666 
L 4325 0 
L 3669 0 
L 3244 1197 
L 1141 1197 
L 716 0 
L 50 0 
L 1831 4666 
z
" transform="scale(0.015625)"/>
       <path id="DejaVuSans-6e" d="M 3513 2113 
L 3513 0 
L 2938 0 
L 2938 2094 
Q 2938 2591 2744 2837 
Q 2550 3084 2163 3084 
Q 1697 3084 1428 2787 
Q 1159 2491 1159 1978 
L 1159 0 
L 581 0 
L 581 3500 
L 1159 3500 
L 1159 2956 
Q 1366 3272 1645 3428 
Q 1925 3584 2291 3584 
Q 2894 3584 3203 3211 
Q 3513 2838 3513 2113 
z
" transform="scale(0.015625)"/>
       <path id="DejaVuSans-67" d="M 2906 1791 
Q 2906 2416 2648 2759 
Q 2391 3103 1925 3103 
Q 1463 3103 1205 2759 
Q 947 2416 947 1791 
Q 947 1169 1205 825 
Q 1463 481 1925 481 
Q 2391 481 2648 825 
Q 2906 1169 2906 1791 
z
M 3481 434 
Q 3481 -459 3084 -895 
Q 2688 -1331 1869 -1331 
Q 1566 -1331 1297 -1286 
Q 1028 -1241 775 -1147 
L 775 -588 
Q 1028 -725 1275 -790 
Q 1522 -856 1778 -856 
Q 2344 -856 2625 -561 
Q 2906 -266 2906 331 
L 2906 616 
Q 2728 306 2450 153 
Q 2172 0 1784 0 
Q 1141 0 747 490 
Q 353 981 353 1791 
Q 353 2603 747 3093 
Q 1141 3584 1784 3584 
Q 2172 3584 2450 3431 
Q 2728 3278 2906 2969 
L 2906 3500 
L 3481 3500 
L 3481 434 
z
" transform="scale(0.015625)"/>
       <path id="DejaVuSans-6c" d="M 603 4863 
L 1178 4863 
L 1178 0 
L 603 0 
L 603 4863 
z
" transform="scale(0.015625)"/>
       <path id="DejaVuSans-65" d="M 3597 1894 
L 3597 1613 
L 953 1613 
Q 991 1019 1311 708 
Q 1631 397 2203 397 
Q 2534 397 2845 478 
Q 3156 559 3463 722 
L 3463 178 
Q 3153 47 2828 -22 
Q 2503 -91 2169 -91 
Q 1331 -91 842 396 
Q 353 884 353 1716 
Q 353 2575 817 3079 
Q 1281 3584 2069 3584 
Q 2775 3584 3186 3129 
Q 3597 2675 3597 1894 
z
M 3022 2063 
Q 3016 2534 2758 2815 
Q 2500 3097 2075 3097 
Q 1594 3097 1305 2825 
Q 1016 2553 972 2059 
L 3022 2063 
z
" transform="scale(0.015625)"/>
       <path id="DejaVuSans-20" transform="scale(0.015625)"/>
       <path id="DejaVuSans-28" d="M 1984 4856 
Q 1566 4138 1362 3434 
Q 1159 2731 1159 2009 
Q 1159 1288 1364 580 
Q 1569 -128 1984 -844 
L 1484 -844 
Q 1016 -109 783 600 
Q 550 1309 550 2009 
Q 550 2706 781 3412 
Q 1013 4119 1484 4856 
L 1984 4856 
z
" transform="scale(0.015625)"/>
       <path id="DejaVuSans-64" d="M 2906 2969 
L 2906 4863 
L 3481 4863 
L 3481 0 
L 2906 0 
L 2906 525 
Q 2725 213 2448 61 
Q 2172 -91 1784 -91 
Q 1150 -91 751 415 
Q 353 922 353 1747 
Q 353 2572 751 3078 
Q 1150 3584 1784 3584 
Q 2172 3584 2448 3432 
Q 2725 3281 2906 2969 
z
M 947 1747 
Q 947 1113 1208 752 
Q 1469 391 1925 391 
Q 2381 391 2643 752 
Q 2906 1113 2906 1747 
Q 2906 2381 2643 2742 
Q 2381 3103 1925 3103 
Q 1469 3103 1208 2742 
Q 947 2381 947 1747 
z
" transform="scale(0.015625)"/>
       <path id="DejaVuSans-72" d="M 2631 2963 
Q 2534 3019 2420 3045 
Q 2306 3072 2169 3072 
Q 1681 3072 1420 2755 
Q 1159 2438 1159 1844 
L 1159 0 
L 581 0 
L 581 3500 
L 1159 3500 
L 1159 2956 
Q 1341 3275 1631 3429 
Q 1922 3584 2338 3584 
Q 2397 3584 2469 3576 
Q 2541 3569 2628 3553 
L 2631 2963 
z
" transform="scale(0.015625)"/>
       <path id="DejaVuSans-73" d="M 2834 3397 
L 2834 2853 
Q 2591 2978 2328 3040 
Q 2066 3103 1784 3103 
Q 1356 3103 1142 2972 
Q 928 2841 928 2578 
Q 928 2378 1081 2264 
Q 1234 2150 1697 2047 
L 1894 2003 
Q 2506 1872 2764 1633 
Q 3022 1394 3022 966 
Q 3022 478 2636 193 
Q 2250 -91 1575 -91 
Q 1294 -91 989 -36 
Q 684 19 347 128 
L 347 722 
Q 666 556 975 473 
Q 1284 391 1588 391 
Q 1994 391 2212 530 
Q 2431 669 2431 922 
Q 2431 1156 2273 1281 
Q 2116 1406 1581 1522 
L 1381 1569 
Q 847 1681 609 1914 
Q 372 2147 372 2553 
Q 372 3047 722 3315 
Q 1072 3584 1716 3584 
Q 2034 3584 2315 3537 
Q 2597 3491 2834 3397 
z
" transform="scale(0.015625)"/>
       <path id="DejaVuSans-29" d="M 513 4856 
L 1013 4856 
Q 1481 4119 1714 3412 
Q 1947 2706 1947 2009 
Q 1947 1309 1714 600 
Q 1481 -109 1013 -844 
L 513 -844 
Q 928 -128 1133 580 
Q 1338 1288 1338 2009 
Q 1338 2731 1133 3434 
Q 928 4138 513 4856 
z
" transform="scale(0.015625)"/>
      </defs>
      <use xlink:href="#DejaVuSans-41"/>
      <use xlink:href="#DejaVuSans-6e" transform="translate(68.408203 0)"/>
      <use xlink:href="#DejaVuSans-67" transform="translate(131.787109 0)"/>
      <use xlink:href="#DejaVuSans-6c" transform="translate(195.263672 0)"/>
      <use xlink:href="#DejaVuSans-65" transform="translate(223.046875 0)"/>
      <use xlink:href="#DejaVuSans-20" transform="translate(284.570312 0)"/>
      <use xlink:href="#DejaVuSans-28" transform="translate(316.357422 0)"/>
      <use xlink:href="#DejaVuSans-64" transform="translate(355.371094 0)"/>
      <use xlink:href="#DejaVuSans-65" transform="translate(418.847656 0)"/>
      <use xlink:href="#DejaVuSans-67" transform="translate(480.371094 0)"/>
      <use xlink:href="#DejaVuSans-72" transform="translate(543.847656 0)"/>
      <use xlink:href="#DejaVuSans-65" transform="translate(582.710938 0)"/>
      <use xlink:href="#DejaVuSans-65" transform="translate(644.234375 0)"/>
      <use xlink:href="#DejaVuSans-73" transform="translate(705.757812 0)"/>
      <use xlink:href="#DejaVuSans-29" transform="translate(757.857422 0)"/>
     </g>
    </g>
   </g>
   <g id="matplotlib.axis_2">
    <g id="ytick_1">
     <g id="line2d_10">
      <defs>
       <path id="mb1f6a3734a" d="M 0 0 
L -3.5 0 
" style="stroke: #000000; stroke-width: 0.8"/>
      </defs>
      <g>
       <use xlink:href="#mb1f6a3734a" x="48.982813" y="343.639219" style="stroke: #000000; stroke-width: 0.8"/>
      </g>
     </g>
     <g id="text_11">
      <!-- −60 -->
      <g transform="translate(20.878125 347.438438) scale(0.1 -0.1)">
       <defs>
        <path id="DejaVuSans-2212" d="M 678 2272 
L 4684 2272 
L 4684 1741 
L 678 1741 
L 678 2272 
z
" transform="scale(0.015625)"/>
        <path id="DejaVuSans-36" d="M 2113 2584 
Q 1688 2584 1439 2293 
Q 1191 2003 1191 1497 
Q 1191 994 1439 701 
Q 1688 409 2113 409 
Q 2538 409 2786 701 
Q 3034 994 3034 1497 
Q 3034 2003 2786 2293 
Q 2538 2584 2113 2584 
z
M 3366 4563 
L 3366 3988 
Q 3128 4100 2886 4159 
Q 2644 4219 2406 4219 
Q 1781 4219 1451 3797 
Q 1122 3375 1075 2522 
Q 1259 2794 1537 2939 
Q 1816 3084 2150 3084 
Q 2853 3084 3261 2657 
Q 3669 2231 3669 1497 
Q 3669 778 3244 343 
Q 2819 -91 2113 -91 
Q 1303 -91 875 529 
Q 447 1150 447 2328 
Q 447 3434 972 4092 
Q 1497 4750 2381 4750 
Q 2619 4750 2861 4703 
Q 3103 4656 3366 4563 
z
" transform="scale(0.015625)"/>
       </defs>
       <use xlink:href="#DejaVuSans-2212"/>
       <use xlink:href="#DejaVuSans-36" transform="translate(83.789062 0)"/>
       <use xlink:href="#DejaVuSans-30" transform="translate(147.412109 0)"/>
      </g>
     </g>
    </g>
    <g id="ytick_2">
     <g id="line2d_11">
      <g>
       <use xlink:href="#mb1f6a3734a" x="48.982813" y="288.199219" style="stroke: #000000; stroke-width: 0.8"/>
      </g>
     </g>
     <g id="text_12">
      <!-- −50 -->
      <g transform="translate(20.878125 291.998438) scale(0.1 -0.1)">
       <use xlink:href="#DejaVuSans-2212"/>
       <use xlink:href="#DejaVuSans-35" transform="translate(83.789062 0)"/>
       <use xlink:href="#DejaVuSans-30" transform="translate(147.412109 0)"/>
      </g>
     </g>
    </g>
    <g id="ytick_3">
     <g id="line2d_12">
      <g>
       <use xlink:href="#mb1f6a3734a" x="48.982813" y="232.759219" style="stroke: #000000; stroke-width: 0.8"/>
      </g>
     </g>
     <g id="text_13">
      <!-- −40 -->
      <g transform="translate(20.878125 236.558438) scale(0.1 -0.1)">
       <defs>
        <path id="DejaVuSans-34" d="M 2419 4116 
L 825 1625 
L 2419 1625 
L 2419 4116 
z
M 2253 4666 
L 3047 4666 
L 3047 1625 
L 3713 1625 
L 3713 1100 
L 3047 1100 
L 3047 0 
L 2419 0 
L 2419 1100 
L 313 1100 
L 313 1709 
L 2253 4666 
z
" transform="scale(0.015625)"/>
       </defs>
       <use xlink:href="#DejaVuSans-2212"/>
       <use xlink:href="#DejaVuSans-34" transform="translate(83.789062 0)"/>
       <use xlink:href="#DejaVuSans-30" transform="translate(147.412109 0)"/>
      </g>
     </g>
    </g>
    <g id="ytick_4">
     <g id="line2d_13">
      <g>
       <use xlink:href="#mb1f6a3734a" x="48.982813" y="177.319219" style="stroke: #000000; stroke-width: 0.8"/>
      </g>
     </g>
     <g id="text_14">
      <!-- −30 -->
      <g transform="translate(20.878125 181.118438) scale(0.1 -0.1)">
       <defs>
        <path id="DejaVuSans-33" d="M 2597 2516 
Q 3050 2419 3304 2112 
Q 3559 1806 3559 1356 
Q 3559 666 3084 287 
Q 2609 -91 1734 -91 
Q 1441 -91 1130 -33 
Q 819 25 488 141 
L 488 750 
Q 750 597 1062 519 
Q 1375 441 1716 441 
Q 2309 441 2620 675 
Q 2931 909 2931 1356 
Q 2931 1769 2642 2001 
Q 2353 2234 1838 2234 
L 1294 2234 
L 1294 2753 
L 1863 2753 
Q 2328 2753 2575 2939 
Q 2822 3125 2822 3475 
Q 2822 3834 2567 4026 
Q 2313 4219 1838 4219 
Q 1578 4219 1281 4162 
Q 984 4106 628 3988 
L 628 4550 
Q 988 4650 1302 4700 
Q 1616 4750 1894 4750 
Q 2613 4750 3031 4423 
Q 3450 4097 3450 3541 
Q 3450 3153 3228 2886 
Q 3006 2619 2597 2516 
z
" transform="scale(0.015625)"/>
       </defs>
       <use xlink:href="#DejaVuSans-2212"/>
       <use xlink:href="#DejaVuSans-33" transform="translate(83.789062 0)"/>
       <use xlink:href="#DejaVuSans-30" transform="translate(147.412109 0)"/>
      </g>
     </g>
    </g>
    <g id="ytick_5">
     <g id="line2d_14">
      <g>
       <use xlink:href="#mb1f6a3734a" x="48.982813" y="121.879219" style="stroke: #000000; stroke-width: 0.8"/>
      </g>
     </g>
     <g id="text_15">
      <!-- −20 -->
      <g transform="translate(20.878125 125.678438) scale(0.1 -0.1)">
       <use xlink:href="#DejaVuSans-2212"/>
       <use xlink:href="#DejaVuSans-32" transform="translate(83.789062 0)"/>
       <use xlink:href="#DejaVuSans-30" transform="translate(147.412109 0)"/>
      </g>
     </g>
    </g>
    <g id="ytick_6">
     <g id="line2d_15">
      <g>
       <use xlink:href="#mb1f6a3734a" x="48.982813" y="66.439219" style="stroke: #000000; stroke-width: 0.8"/>
      </g>
     </g>
     <g id="text_16">
      <!-- −10 -->
      <g transform="translate(20.878125 70.238438) scale(0.1 -0.1)">
       <use xlink:href="#DejaVuSans-2212"/>
       <use xlink:href="#DejaVuSans-31" transform="translate(83.789062 0)"/>
       <use xlink:href="#DejaVuSans-30" transform="translate(147.412109 0)"/>
      </g>
     </g>
    </g>
    <g id="ytick_7">
     <g id="line2d_16">
      <g>
       <use xlink:href="#mb1f6a3734a" x="48.982813" y="10.999219" style="stroke: #000000; stroke-width: 0.8"/>
      </g>
     </g>
     <g id="text_17">
      <!-- 0 -->
      <g transform="translate(35.620313 14.798438) scale(0.1 -0.1)">
       <use xlink:href="#DejaVuSans-30"/>
      </g>
     </g>
    </g>
    <g id="text_18">
     <!-- Power (dB) -->
     <g transform="translate(14.798438 204.528594) rotate(-90) scale(0.1 -0.1)">
      <defs>
       <path id="DejaVuSans-50" d="M 1259 4147 
L 1259 2394 
L 2053 2394 
Q 2494 2394 2734 2622 
Q 2975 2850 2975 3272 
Q 2975 3691 2734 3919 
Q 2494 4147 2053 4147 
L 1259 4147 
z
M 628 4666 
L 2053 4666 
Q 2838 4666 3239 4311 
Q 3641 3956 3641 3272 
Q 3641 2581 3239 2228 
Q 2838 1875 2053 1875 
L 1259 1875 
L 1259 0 
L 628 0 
L 628 4666 
z
" transform="scale(0.015625)"/>
       <path id="DejaVuSans-6f" d="M 1959 3097 
Q 1497 3097 1228 2736 
Q 959 2375 959 1747 
Q 959 1119 1226 758 
Q 1494 397 1959 397 
Q 2419 397 2687 759 
Q 2956 1122 2956 1747 
Q 2956 2369 2687 2733 
Q 2419 3097 1959 3097 
z
M 1959 3584 
Q 2709 3584 3137 3096 
Q 3566 2609 3566 1747 
Q 3566 888 3137 398 
Q 2709 -91 1959 -91 
Q 1206 -91 779 398 
Q 353 888 353 1747 
Q 353 2609 779 3096 
Q 1206 3584 1959 3584 
z
" transform="scale(0.015625)"/>
       <path id="DejaVuSans-77" d="M 269 3500 
L 844 3500 
L 1563 769 
L 2278 3500 
L 2956 3500 
L 3675 769 
L 4391 3500 
L 4966 3500 
L 4050 0 
L 3372 0 
L 2619 2869 
L 1863 0 
L 1184 0 
L 269 3500 
z
" transform="scale(0.015625)"/>
       <path id="DejaVuSans-42" d="M 1259 2228 
L 1259 519 
L 2272 519 
Q 2781 519 3026 730 
Q 3272 941 3272 1375 
Q 3272 1813 3026 2020 
Q 2781 2228 2272 2228 
L 1259 2228 
z
M 1259 4147 
L 1259 2741 
L 2194 2741 
Q 2656 2741 2882 2914 
Q 3109 3088 3109 3444 
Q 3109 3797 2882 3972 
Q 2656 4147 2194 4147 
L 1259 4147 
z
M 628 4666 
L 2241 4666 
Q 2963 4666 3353 4366 
Q 3744 4066 3744 3513 
Q 3744 3084 3544 2831 
Q 3344 2578 2956 2516 
Q 3422 2416 3680 2098 
Q 3938 1781 3938 1306 
Q 3938 681 3513 340 
Q 3088 0 2303 0 
L 628 0 
L 628 4666 
z
" transform="scale(0.015625)"/>
      </defs>
      <use xlink:href="#DejaVuSans-50"/>
      <use xlink:href="#DejaVuSans-6f" transform="translate(56.677734 0)"/>
      <use xlink:href="#DejaVuSans-77" transform="translate(117.859375 0)"/>
      <use xlink:href="#DejaVuSans-65" transform="translate(199.646484 0)"/>
      <use xlink:href="#DejaVuSans-72" transform="translate(261.169922 0)"/>
      <use xlink:href="#DejaVuSans-20" transform="translate(302.283203 0)"/>
      <use xlink:href="#DejaVuSans-28" transform="translate(334.070312 0)"/>
      <use xlink:href="#DejaVuSans-64" transform="translate(373.083984 0)"/>
      <use xlink:href="#DejaVuSans-42" transform="translate(436.560547 0)"/>
      <use xlink:href="#DejaVuSans-29" transform="translate(505.164062 0)"/>
     </g>
    </g>
   </g>
   <g id="line2d_17">
    <path d="M 45.574849 11.306023 
L 48.982813 10.999219 
L 52.390776 11.306023 
L 55.798691 12.230896 
L 59.206509 13.787475 
L 62.614181 15.999641 
L 66.021661 18.903309 
L 69.428898 22.54954 
L 72.835845 27.009336 
L 76.242454 32.381509 
L 79.648675 38.805632 
L 83.054462 46.484589 
L 86.459765 55.726597 
L 89.864536 67.030769 
L 93.268728 81.284985 
L 96.672292 100.318339 
L 100.075181 129.026077 
L 103.477345 193.218861 
L 106.878738 175.313668 
L 110.279312 132.537795 
L 113.679018 113.780765 
L 117.077809 103.243772 
L 120.475638 97.184617 
L 123.872456 94.158082 
L 127.268217 93.503393 
L 130.662873 94.925235 
L 134.056377 98.353859 
L 137.448681 103.914006 
L 140.839739 111.972605 
L 144.229503 123.312338 
L 147.617927 139.656853 
L 151.004964 165.706594 
L 154.390567 225.679719 
L 157.774689 210.79534 
L 161.157286 164.956059 
L 164.538309 144.209171 
L 167.917713 131.92792 
L 171.295452 124.243218 
L 174.671481 119.656746 
L 178.045752 117.469423 
L 181.418222 117.346982 
L 184.788843 119.169977 
L 188.157572 122.988488 
L 191.524363 129.040057 
L 194.889171 137.846537 
L 198.251951 150.491186 
L 201.612659 169.50643 
L 204.97125 203.10496 
L 207.316932 382.195469 
M 209.34421 382.195469 
L 211.681904 204.730258 
L 215.03388 173.470857 
L 218.383562 156.637986 
L 221.730908 146.138544 
L 225.075874 139.464665 
L 228.418417 135.541669 
L 231.758494 133.851699 
L 235.096062 134.159317 
L 238.431078 136.415596 
L 241.763501 140.740258 
L 245.093288 147.466945 
L 248.420397 157.292179 
L 251.744786 171.707014 
L 255.066414 194.554569 
L 258.38524 242.261914 
L 261.701221 260.506606 
L 265.014319 202.219634 
L 268.324491 178.258834 
L 271.631697 164.040617 
L 274.935897 154.820627 
L 278.237052 148.850714 
L 281.535121 145.320988 
L 284.830066 143.825576 
L 288.121846 144.178336 
L 291.410422 146.3456 
L 294.695757 150.435237 
L 297.977811 156.733557 
L 301.256547 165.820279 
L 304.531926 178.882698 
L 307.80391 198.741057 
L 311.072462 235.082444 
L 314.337545 335.25163 
L 317.599122 226.062446 
L 320.857156 197.015155 
L 324.11161 180.81499 
L 327.362449 170.515794 
L 330.609637 163.845034 
L 333.853137 159.802125 
L 337.092914 157.893002 
L 340.328934 157.882396 
L 343.561162 159.702959 
L 346.789562 163.432825 
L 350.014102 169.32231 
L 353.234745 177.892665 
L 356.45146 190.205766 
L 359.664212 208.713548 
L 362.872969 241.214842 
L 365.529497 382.195469 
M 366.639719 382.195469 
L 369.278364 245.607973 
L 372.474937 213.095471 
L 375.667386 195.535657 
L 378.855676 184.386199 
L 382.039779 177.035774 
L 385.219661 172.357357 
L 388.395293 169.786735 
L 391.566644 169.032055 
L 394.733683 169.963189 
L 397.89638 172.571033 
L 401.054707 176.964883 
L 404.208633 183.406994 
L 407.358129 192.409163 
L 410.503167 204.984253 
L 413.643718 223.414885 
L 416.779754 254.664579 
L 419.911247 366.523319 
L 423.038169 267.760498 
L 426.160493 233.493184 
L 429.278193 215.626756 
L 432.39124 204.487048 
L 435.49961 197.245401 
L 438.603275 192.698413 
L 441.70221 190.242078 
L 444.79639 189.554556 
L 447.885789 190.474672 
L 450.970383 192.953149 
L 454.050146 197.039328 
L 457.125055 202.895631 
L 460.195085 210.848466 
L 463.260213 221.515015 
L 466.320415 236.136959 
L 469.375669 257.676553 
L 472.425951 296.59681 
L 475.471239 378.022788 
L 478.511511 284.821224 
L 481.546745 257.495055 
L 484.576919 242.243366 
L 487.602012 232.525843 
L 490.622003 226.122339 
L 493.636872 222.006552 
L 496.646597 219.619606 
L 496.646597 219.619606 
" clip-path="url(#p56c5d15719)" style="fill: none; stroke: #1f77b4; stroke-width: 1.5; stroke-linecap: square"/>
   </g>
   <g id="line2d_18">
    <path d="M 45.561163 11.325407 
L 48.982813 10.999219 
L 52.404462 11.325407 
L 55.826063 12.309095 
L 59.247566 13.96604 
L 62.668922 16.323891 
L 66.090082 19.424515 
L 69.510997 23.327881 
L 72.931618 28.118362 
L 76.351897 33.915091 
L 79.771784 40.889656 
L 83.19123 49.298074 
L 86.610188 59.543313 
L 90.028607 72.311607 
L 93.44644 88.920309 
L 96.863638 112.457896 
L 100.280151 153.903566 
L 103.695932 227.974879 
L 107.110933 142.757899 
L 110.525103 117.643464 
L 113.938396 104.399553 
L 117.350763 96.780785 
L 120.762156 92.700765 
L 124.172527 91.256583 
L 127.581827 92.037772 
L 130.990009 94.907772 
L 134.397024 99.941777 
L 137.802826 107.454717 
L 141.207367 118.147539 
L 144.610598 133.555229 
L 148.012473 157.704612 
L 151.412944 208.531433 
L 154.811965 219.215056 
L 158.209487 165.135708 
L 161.605464 142.667247 
L 164.99985 129.641029 
L 168.392597 121.559623 
L 171.78366 116.754974 
L 175.172991 114.466675 
L 178.560544 114.337944 
L 181.946274 116.246861 
L 185.330133 120.257715 
L 188.712078 126.645358 
L 192.092061 136.015265 
L 195.470038 149.656308 
L 198.845963 170.749635 
L 202.219791 211.143121 
L 205.591477 269.021151 
L 208.960977 190.476448 
L 212.328245 164.05761 
L 215.693237 149.096756 
L 219.055909 139.703378 
L 222.416217 133.856277 
L 225.774117 130.659491 
L 229.129565 129.687604 
L 232.482518 130.772885 
L 235.832933 133.937253 
L 239.180767 139.40053 
L 242.525976 147.672568 
L 245.868518 159.827474 
L 249.208351 178.387994 
L 252.545433 211.541323 
L 254.593781 382.195469 
M 257.169684 382.195469 
L 259.211173 212.643449 
L 262.539749 181.044344 
L 265.865407 163.934689 
L 269.188105 153.201116 
L 272.507803 146.333667 
L 275.824461 142.259964 
L 279.138038 140.467373 
L 282.448493 140.729413 
L 285.755787 143.011981 
L 289.05988 147.460561 
L 292.360734 154.45697 
L 295.658307 164.800244 
L 298.952563 180.246243 
L 302.243462 205.609505 
L 305.530965 266.33192 
L 308.815036 246.62888 
L 312.095634 200.9711 
L 315.372724 179.682342 
L 318.646268 166.783861 
L 321.916228 158.493376 
L 325.182569 153.341468 
L 328.445253 150.646372 
L 331.704243 150.090885 
L 334.959505 151.578586 
L 338.211003 155.196447 
L 341.4587 161.248503 
L 344.702562 170.392236 
L 347.942554 184.038912 
L 351.178641 205.773424 
L 354.410789 250.127853 
L 357.638964 280.903954 
L 360.863133 216.543992 
L 364.083261 191.441267 
L 367.299316 176.677936 
L 370.511264 167.142494 
L 373.719074 161.000491 
L 376.922713 157.420059 
L 380.122148 155.99942 
L 383.317349 156.575308 
L 386.508283 159.159761 
L 389.69492 163.944562 
L 392.877228 171.377232 
L 396.055178 182.383978 
L 399.22874 199.05315 
L 402.397882 227.54198 
L 405.562575 313.622645 
L 408.722791 247.786654 
L 411.8785 210.012321 
L 415.029674 190.712472 
L 418.176284 178.69476 
L 421.318301 170.884676 
L 424.455699 166.024809 
L 427.588449 163.52015 
L 430.716525 163.096943 
L 433.839899 164.68485 
L 436.958546 168.390486 
L 440.072438 174.538268 
L 443.18155 183.816614 
L 446.285855 197.704831 
L 449.38533 220.013004 
L 452.479948 266.922338 
L 455.569685 286.288613 
L 458.654516 227.026686 
L 461.734418 202.660611 
L 464.809366 188.147082 
L 467.879337 178.706013 
L 470.944308 172.588283 
L 474.004255 168.994469 
L 477.059157 167.538514 
L 480.10899 168.066696 
L 483.153734 170.598747 
L 486.193365 175.335277 
L 489.227864 182.737992 
L 492.257208 193.763131 
L 495.281377 210.583181 
L 498.30035 239.725622 
L 498.30035 239.725622 
" clip-path="url(#p56c5d15719)" style="fill: none; stroke: #ff7f0e; stroke-width: 1.5; stroke-linecap: square"/>
   </g>
   <g id="line2d_19">
    <path d="M 45.572725 11.333029 
L 48.982813 10.999219 
L 52.3929 11.333029 
L 55.802938 12.339949 
L 59.21288 14.036882 
L 62.622676 16.453546 
L 66.032278 19.635093 
L 69.441638 23.646498 
L 72.850707 28.579749 
L 76.259437 34.565817 
L 79.667779 41.795437 
L 83.075685 50.557432 
L 86.483107 61.315791 
L 89.889997 74.884359 
L 93.296305 92.899605 
L 96.701985 119.537652 
L 100.106988 173.550664 
L 103.511265 182.251463 
L 106.91477 131.296036 
L 110.317454 110.68419 
L 113.719268 99.264419 
L 117.120166 92.663644 
L 120.5201 89.262911 
L 123.919021 88.336004 
L 127.316883 89.559941 
L 130.713638 92.855034 
L 134.109239 98.348504 
L 137.503638 106.424684 
L 140.896788 117.913366 
L 144.288642 134.672143 
L 147.679153 161.933106 
L 151.068275 230.2285 
L 154.45596 197.023632 
L 157.842162 155.313839 
L 161.226835 135.554337 
L 164.609932 123.741568 
L 167.991407 116.366085 
L 171.371214 112.039103 
L 174.749307 110.11236 
L 178.125639 110.286297 
L 181.500167 112.476162 
L 184.872843 116.778995 
L 188.243623 123.510737 
L 191.612461 133.348292 
L 194.979313 147.746402 
L 198.344133 170.433046 
L 201.706877 216.969908 
L 205.067501 240.915171 
L 208.425959 180.50323 
L 211.782208 156.43958 
L 215.136203 142.39595 
L 218.487902 133.479922 
L 221.837259 127.916086 
L 225.184233 124.898535 
L 228.528779 124.042705 
L 231.870854 125.2021 
L 235.210416 128.410761 
L 238.547422 133.89593 
L 241.88183 142.172241 
L 245.213597 154.317046 
L 248.542681 172.855513 
L 251.86904 205.97779 
L 253.992227 382.195469 
M 256.396353 382.195469 
L 258.513418 206.969865 
L 261.831355 175.310695 
L 265.146402 158.129559 
L 268.458518 147.314195 
L 271.767663 140.35417 
L 275.073798 136.175932 
L 278.376881 134.264889 
L 281.676873 134.391439 
L 284.973734 136.516375 
L 288.267425 140.776375 
L 291.557908 147.536661 
L 294.845143 157.560677 
L 298.129091 172.510784 
L 301.409715 196.84774 
L 304.686976 252.34913 
L 307.960836 245.142684 
L 311.231259 195.871144 
L 314.498206 173.630507 
L 317.761641 160.189086 
L 321.021526 151.479318 
L 324.277826 145.946652 
L 327.530504 142.869895 
L 330.779523 141.904642 
L 334.02485 142.926919 
L 337.266447 145.986074 
L 340.50428 151.323108 
L 343.738314 159.470708 
L 346.968514 171.541208 
L 350.194846 190.159201 
L 353.417276 224.014384 
L 356.635771 373.805778 
L 359.850295 220.67759 
L 363.060818 189.661192 
L 366.267305 172.504815 
L 369.469723 161.547264 
L 372.668042 154.367323 
L 375.862227 149.918045 
L 379.052249 147.691761 
L 382.238074 147.455849 
L 385.419673 149.159405 
L 388.597014 152.915173 
L 391.770066 159.041237 
L 394.9388 168.199791 
L 398.103185 181.793569 
L 401.263191 203.358498 
L 404.418789 247.050838 
L 407.56995 280.751663 
L 410.716646 214.807243 
L 413.858846 189.35427 
L 416.996524 174.33717 
L 420.129652 164.5517 
L 423.258201 158.135184 
L 426.382145 154.238611 
L 429.501456 152.442947 
L 432.616107 152.56194 
L 435.726073 154.572231 
L 438.831327 158.605358 
L 441.931843 164.995101 
L 445.027596 174.421724 
L 448.11856 188.320141 
L 451.204711 210.321749 
L 454.286023 255.234179 
L 457.362473 284.07203 
L 460.434037 220.750824 
L 463.500691 195.832071 
L 466.562411 181.140929 
L 469.619174 171.626343 
L 472.670958 165.468667 
L 475.717739 161.840305 
L 478.759497 160.33938 
L 481.796208 160.799337 
L 484.827852 163.225078 
L 487.854406 167.794861 
L 490.87585 174.929618 
L 493.892164 185.496611 
L 496.903326 201.42197 
L 496.903326 201.42197 
" clip-path="url(#p56c5d15719)" style="fill: none; stroke: #2ca02c; stroke-width: 1.5; stroke-linecap: square"/>
   </g>
   <g id="patch_3">
    <path d="M 48.982813 343.639219 
L 48.982813 10.999219 
" style="fill: none; stroke: #000000; stroke-width: 0.8; stroke-linejoin: miter; stroke-linecap: square"/>
   </g>
   <g id="patch_4">
    <path d="M 495.382812 343.639219 
L 495.382812 10.999219 
" style="fill: none; stroke: #000000; stroke-width: 0.8; stroke-linejoin: miter; stroke-linecap: square"/>
   </g>
   <g id="patch_5">
    <path d="M 48.982813 343.639219 
L 495.382812 343.639219 
" style="fill: none; stroke: #000000; stroke-width: 0.8; stroke-linejoin: miter; stroke-linecap: square"/>
   </g>
   <g id="patch_6">
    <path d="M 48.982813 10.999219 
L 495.382812 10.999219 
" style="fill: none; stroke: #000000; stroke-width: 0.8; stroke-linejoin: miter; stroke-linecap: square"/>
   </g>
   <g id="legend_1">
    <g id="patch_7">
     <path d="M 379.940625 63.033594 
L 488.382812 63.033594 
Q 490.382812 63.033594 490.382812 61.033594 
L 490.382812 17.999219 
Q 490.382812 15.999219 488.382812 15.999219 
L 379.940625 15.999219 
Q 377.940625 15.999219 377.940625 17.999219 
L 377.940625 61.033594 
Q 377.940625 63.033594 379.940625 63.033594 
z
" style="fill: #ffffff; opacity: 0.8; stroke: #cccccc; stroke-linejoin: miter"/>
    </g>
    <g id="line2d_20">
     <path d="M 381.940625 24.097656 
L 391.940625 24.097656 
L 401.940625 24.097656 
" style="fill: none; stroke: #1f77b4; stroke-width: 1.5; stroke-linecap: square"/>
    </g>
    <g id="text_19">
     <!-- MEEPSAT FDTD -->
     <g transform="translate(409.940625 27.597656) scale(0.1 -0.1)">
      <defs>
       <path id="DejaVuSans-4d" d="M 628 4666 
L 1569 4666 
L 2759 1491 
L 3956 4666 
L 4897 4666 
L 4897 0 
L 4281 0 
L 4281 4097 
L 3078 897 
L 2444 897 
L 1241 4097 
L 1241 0 
L 628 0 
L 628 4666 
z
" transform="scale(0.015625)"/>
       <path id="DejaVuSans-45" d="M 628 4666 
L 3578 4666 
L 3578 4134 
L 1259 4134 
L 1259 2753 
L 3481 2753 
L 3481 2222 
L 1259 2222 
L 1259 531 
L 3634 531 
L 3634 0 
L 628 0 
L 628 4666 
z
" transform="scale(0.015625)"/>
       <path id="DejaVuSans-53" d="M 3425 4513 
L 3425 3897 
Q 3066 4069 2747 4153 
Q 2428 4238 2131 4238 
Q 1616 4238 1336 4038 
Q 1056 3838 1056 3469 
Q 1056 3159 1242 3001 
Q 1428 2844 1947 2747 
L 2328 2669 
Q 3034 2534 3370 2195 
Q 3706 1856 3706 1288 
Q 3706 609 3251 259 
Q 2797 -91 1919 -91 
Q 1588 -91 1214 -16 
Q 841 59 441 206 
L 441 856 
Q 825 641 1194 531 
Q 1563 422 1919 422 
Q 2459 422 2753 634 
Q 3047 847 3047 1241 
Q 3047 1584 2836 1778 
Q 2625 1972 2144 2069 
L 1759 2144 
Q 1053 2284 737 2584 
Q 422 2884 422 3419 
Q 422 4038 858 4394 
Q 1294 4750 2059 4750 
Q 2388 4750 2728 4690 
Q 3069 4631 3425 4513 
z
" transform="scale(0.015625)"/>
       <path id="DejaVuSans-54" d="M -19 4666 
L 3928 4666 
L 3928 4134 
L 2272 4134 
L 2272 0 
L 1638 0 
L 1638 4134 
L -19 4134 
L -19 4666 
z
" transform="scale(0.015625)"/>
       <path id="DejaVuSans-46" d="M 628 4666 
L 3309 4666 
L 3309 4134 
L 1259 4134 
L 1259 2759 
L 3109 2759 
L 3109 2228 
L 1259 2228 
L 1259 0 
L 628 0 
L 628 4666 
z
" transform="scale(0.015625)"/>
       <path id="DejaVuSans-44" d="M 1259 4147 
L 1259 519 
L 2022 519 
Q 2988 519 3436 956 
Q 3884 1394 3884 2338 
Q 3884 3275 3436 3711 
Q 2988 4147 2022 4147 
L 1259 4147 
z
M 628 4666 
L 1925 4666 
Q 3281 4666 3915 4102 
Q 4550 3538 4550 2338 
Q 4550 1131 3912 565 
Q 3275 0 1925 0 
L 628 0 
L 628 4666 
z
" transform="scale(0.015625)"/>
      </defs>
      <use xlink:href="#DejaVuSans-4d"/>
      <use xlink:href="#DejaVuSans-45" transform="translate(86.279297 0)"/>
      <use xlink:href="#DejaVuSans-45" transform="translate(149.462891 0)"/>
      <use xlink:href="#DejaVuSans-50" transform="translate(212.646484 0)"/>
      <use xlink:href="#DejaVuSans-53" transform="translate(272.949219 0)"/>
      <use xlink:href="#DejaVuSans-41" transform="translate(338.300781 0)"/>
      <use xlink:href="#DejaVuSans-54" transform="translate(398.958984 0)"/>
      <use xlink:href="#DejaVuSans-20" transform="translate(460.042969 0)"/>
      <use xlink:href="#DejaVuSans-46" transform="translate(491.830078 0)"/>
      <use xlink:href="#DejaVuSans-44" transform="translate(549.349609 0)"/>
      <use xlink:href="#DejaVuSans-54" transform="translate(626.351562 0)"/>
      <use xlink:href="#DejaVuSans-44" transform="translate(687.435547 0)"/>
     </g>
    </g>
    <g id="line2d_21">
     <path d="M 381.940625 38.775781 
L 391.940625 38.775781 
L 401.940625 38.775781 
" style="fill: none; stroke: #ff7f0e; stroke-width: 1.5; stroke-linecap: square"/>
    </g>
    <g id="text_20">
     <!-- GRASP MoM -->
     <g transform="translate(409.940625 42.275781) scale(0.1 -0.1)">
      <defs>
       <path id="DejaVuSans-47" d="M 3809 666 
L 3809 1919 
L 2778 1919 
L 2778 2438 
L 4434 2438 
L 4434 434 
Q 4069 175 3628 42 
Q 3188 -91 2688 -91 
Q 1594 -91 976 548 
Q 359 1188 359 2328 
Q 359 3472 976 4111 
Q 1594 4750 2688 4750 
Q 3144 4750 3555 4637 
Q 3966 4525 4313 4306 
L 4313 3634 
Q 3963 3931 3569 4081 
Q 3175 4231 2741 4231 
Q 1884 4231 1454 3753 
Q 1025 3275 1025 2328 
Q 1025 1384 1454 906 
Q 1884 428 2741 428 
Q 3075 428 3337 486 
Q 3600 544 3809 666 
z
" transform="scale(0.015625)"/>
       <path id="DejaVuSans-52" d="M 2841 2188 
Q 3044 2119 3236 1894 
Q 3428 1669 3622 1275 
L 4263 0 
L 3584 0 
L 2988 1197 
Q 2756 1666 2539 1819 
Q 2322 1972 1947 1972 
L 1259 1972 
L 1259 0 
L 628 0 
L 628 4666 
L 2053 4666 
Q 2853 4666 3247 4331 
Q 3641 3997 3641 3322 
Q 3641 2881 3436 2590 
Q 3231 2300 2841 2188 
z
M 1259 4147 
L 1259 2491 
L 2053 2491 
Q 2509 2491 2742 2702 
Q 2975 2913 2975 3322 
Q 2975 3731 2742 3939 
Q 2509 4147 2053 4147 
L 1259 4147 
z
" transform="scale(0.015625)"/>
      </defs>
      <use xlink:href="#DejaVuSans-47"/>
      <use xlink:href="#DejaVuSans-52" transform="translate(77.490234 0)"/>
      <use xlink:href="#DejaVuSans-41" transform="translate(142.972656 0)"/>
      <use xlink:href="#DejaVuSans-53" transform="translate(211.380859 0)"/>
      <use xlink:href="#DejaVuSans-50" transform="translate(274.857422 0)"/>
      <use xlink:href="#DejaVuSans-20" transform="translate(335.160156 0)"/>
      <use xlink:href="#DejaVuSans-4d" transform="translate(366.947266 0)"/>
      <use xlink:href="#DejaVuSans-6f" transform="translate(453.226562 0)"/>
      <use xlink:href="#DejaVuSans-4d" transform="translate(514.408203 0)"/>
     </g>
    </g>
    <g id="line2d_22">
     <path d="M 381.940625 53.453906 
L 391.940625 53.453906 
L 401.940625 53.453906 
" style="fill: none; stroke: #2ca02c; stroke-width: 1.5; stroke-linecap: square"/>
    </g>
    <g id="text_21">
     <!-- CST FIT -->
     <g transform="translate(409.940625 56.953906) scale(0.1 -0.1)">
      <defs>
       <path id="DejaVuSans-43" d="M 4122 4306 
L 4122 3641 
Q 3803 3938 3442 4084 
Q 3081 4231 2675 4231 
Q 1875 4231 1450 3742 
Q 1025 3253 1025 2328 
Q 1025 1406 1450 917 
Q 1875 428 2675 428 
Q 3081 428 3442 575 
Q 3803 722 4122 1019 
L 4122 359 
Q 3791 134 3420 21 
Q 3050 -91 2638 -91 
Q 1578 -91 968 557 
Q 359 1206 359 2328 
Q 359 3453 968 4101 
Q 1578 4750 2638 4750 
Q 3056 4750 3426 4639 
Q 3797 4528 4122 4306 
z
" transform="scale(0.015625)"/>
       <path id="DejaVuSans-49" d="M 628 4666 
L 1259 4666 
L 1259 0 
L 628 0 
L 628 4666 
z
" transform="scale(0.015625)"/>
      </defs>
      <use xlink:href="#DejaVuSans-43"/>
      <use xlink:href="#DejaVuSans-53" transform="translate(69.824219 0)"/>
      <use xlink:href="#DejaVuSans-54" transform="translate(133.300781 0)"/>
      <use xlink:href="#DejaVuSans-20" transform="translate(194.384766 0)"/>
      <use xlink:href="#DejaVuSans-46" transform="translate(226.171875 0)"/>
      <use xlink:href="#DejaVuSans-49" transform="translate(283.691406 0)"/>
      <use xlink:href="#DejaVuSans-54" transform="translate(313.183594 0)"/>
     </g>
    </g>
   </g>
  </g>
 </g>
 <defs>
  <clipPath id="p56c5d15719">
   <rect x="48.982813" y="10.999219" width="446.4" height="332.64"/>
  </clipPath>
 </defs>
</svg>
